/* XPM */
static char *result[] = {
/* columns rows colors chars-per-pixel */
"32 32 168 2 ",
"   c #0F0F10",
".  c #0F1010",
"X  c #0F1111",
"o  c #0F1211",
"O  c #0F1311",
"+  c #0F1412",
"@  c #0F1512",
"#  c #0F1612",
"$  c #0E1712",
"%  c #0E1813",
"&  c #0E1913",
"*  c #0E1A13",
"=  c #0E1B14",
"-  c #0E1C14",
";  c #0E1E15",
":  c #0E1F15",
">  c #1D1D1F",
",  c #1D1E1F",
"<  c #1D1F1F",
"1  c #0E2116",
"2  c #0D2517",
"3  c #0E2416",
"4  c #0E2417",
"5  c #0D2617",
"6  c #0D2818",
"7  c #0D2918",
"8  c #0D2A18",
"9  c #0D2B19",
"0  c #0D2C19",
"q  c #0D2D19",
"w  c #0D311B",
"e  c #0D321B",
"r  c #0C341B",
"t  c #0C371C",
"y  c #0C391D",
"u  c #0C3C1E",
"i  c #0C3D1E",
"p  c #0C3F1F",
"a  c #1D1F20",
"s  c #1D2020",
"d  c #1C2120",
"f  c #1C2320",
"g  c #1C2321",
"h  c #1C2421",
"j  c #1C2521",
"k  c #1C2621",
"l  c #1C2721",
"z  c #1B2822",
"x  c #1B2922",
"c  c #1B2A22",
"v  c #1B2B22",
"b  c #1B2B23",
"n  c #1B2C23",
"m  c #1B2D23",
"M  c #1B2E23",
"N  c #1A2F23",
"B  c #1A2F24",
"V  c #1A3024",
"C  c #1A3124",
"Z  c #1A3224",
"A  c #1A3425",
"S  c #193625",
"D  c #193826",
"F  c #193926",
"G  c #193A26",
"H  c #193B27",
"J  c #193C27",
"K  c #183D27",
"L  c #183E27",
"P  c #0C411F",
"I  c #0B4320",
"U  c #0C4220",
"Y  c #0B4420",
"T  c #0B4521",
"R  c #0B4922",
"E  c #0B4B22",
"W  c #0B4C23",
"Q  c #0B4D23",
"!  c #0B4F23",
"~  c #0B4F24",
"^  c #174429",
"/  c #174629",
"(  c #17472A",
")  c #184028",
"_  c #184228",
"`  c #184329",
"'  c #184429",
"]  c #17482A",
"[  c #174B2B",
"{  c #164C2B",
"}  c #164D2B",
"|  c #164E2B",
" . c #164F2C",
".. c #0B5024",
"X. c #0A5124",
"o. c #0A5325",
"O. c #0A5526",
"+. c #0A5626",
"@. c #0A5826",
"#. c #0A5927",
"$. c #0A5A27",
"%. c #0A5B27",
"&. c #0A5D28",
"*. c #16502C",
"=. c #15522C",
"-. c #15532D",
";. c #15542D",
":. c #15552D",
">. c #15562D",
",. c #15582E",
"<. c #14592E",
"1. c #145A2E",
"2. c #145B2F",
"3. c #145D2F",
"4. c #145E30",
"5. c #145F30",
"6. c #096129",
"7. c #09642A",
"8. c #09652A",
"9. c #096B2C",
"0. c #096D2D",
"q. c #136130",
"w. c #136231",
"e. c #136331",
"r. c #146030",
"t. c #136431",
"y. c #136531",
"u. c #136732",
"i. c #126932",
"p. c #126A33",
"a. c #126B33",
"s. c #126C33",
"d. c #126D33",
"f. c #077E32",
"g. c #087931",
"h. c #087B31",
"j. c #0F7D37",
"k. c #0F7E38",
"l. c #0F7F38",
"z. c #117034",
"x. c #117134",
"c. c #117435",
"v. c #107535",
"b. c #107636",
"n. c #107A37",
"m. c #107B37",
"M. c #107C37",
"N. c #6A655D",
"B. c #078033",
"V. c #078133",
"C. c #078233",
"Z. c #0F8038",
"A. c #0F8138",
"S. c #0F8239",
"D. c #0F8339",
"F. c #0E8539",
"G. c #0E863A",
"H. c #0E873A",
"J. c #0E883A",
"K. c #0E893A",
"L. c #0E8A3B",
"P. c #0D8C3B",
"I. c #0D8D3B",
"U. c #0D8E3C",
"Y. c #B3B0AC",
"T. c #E8E4DF",
"R. c #F3F2F0",
"E. c white",
/* pixels */
"    > > > > > > > a j B L { ! O.O.! U e B j a > > > > > > > > > ",
"    > > > > > > > s x D { 5.R.R.R.R.O.U D x s > > > > > > > > > ",
"> >     > > > > > f M ) ! R.R.R.E.E.R.! ) M f > > > > > > > > > ",
"> >     > > > > > g V ^ +.N.R.R.N.E.R.O.' V g > > > > > > > > > ",
"> > > >     > > , h 5 i e.R.N.R.R.R.R.w.u 2 h , > > > > > > > > ",
"> > > >     > , < l 8 P u.Y.Y.Y.R.R.R.y.p 7 l < , > > > > > > > ",
"> > > > > > . X + : K -.s.R.R.R.R.T.m.i.*.J ; + < , > > > > > > ",
"> > > > > > . O * 7 ] 4.c.S.L.Y.Y.L.A.x.3.] 7 * d , > > > > > > ",
"> > > > > > o % V _ >.a.T.Y.T.Y.T.R.Y.T.p.>._ V % o > > > > > > ",
"> > > > > > o - F  .y.T.Y.T.R.R.E.E.R.Y.T.t.| F - o > > > > > > ",
"> > > >     @ 1 ) <.T.Z.T.Y.U.Y.T.U.Y.R.Z.R.<.) M f     > > > > ",
"> > > >   . # 4 / q.T.F.T.T.R.R.E.E.R.R.F.R.q./ C g .   > > > > ",
"          . % 6 [ y.T.G.T.I.U.Y.T.U.I.R.G.R.y.[ A k .           ",
"          o = 0  .i.T.G.T.T.R.R.E.E.R.R.G.R.i. .D z o           ",
"> >       o ; w E 7.T.G.T.P.I.Y.T.I.P.R.G.R.d.:.K b o       > > ",
"> >       @ 1 t X.T.l.G.L.T.R.R.E.E.R.L.G.l.R.2._ M @       > > ",
"> > > >   # 3 y O.T.g.B.L.L.P.Y.T.P.L.L.H.A.R.5.^ V #   > > > > ",
"> > > >   $ 2 u @.T.h.V.T.T.T.R.E.E.R.R.J.S.R.q.( Z $   > > > > ",
"> > > >   $ Z ( q.T.S.J.Y.C.T.T.T.T.K.R.K.D.R.w.i 2 h > > > > > ",
"> > > >   # V ` 3.T.j.F.f.Y.Y.Y.T.T.T.G.J.S.R.q.u 2 h > > > > > ",
"> >     > f m K ;.T.v.k.T.n.9.8.8.9.M.R.F.k.R.o.` V g > > > > > ",
"> >     > s x A ( <.i.v.T.z.$.....$.x.R.j.b.R.R K m f > > > > > ",
"    > > > a g v D ] 2.a.T.i.<.} I ~ 6.R.0.6.<.( A x s > > > > > ",
"    > > > , s g m J | w.T.y.:.] i E &.R.6.~ ] D v g a > > > > > ",
"> > > > > , , < j Z ^ 1.T.t.,.{ { ,.%.R.O.P F n g s , > > >     ",
"> > > > > > > > s b K ;.t.T.4.-.-.4.R.%.W r N g < , , > > >     ",
"> > > > > > > > a x F *.w.T.w.,.,.q.R.@.Y 0 = o > > > >         ",
"> > > > > > > > < z D  .w.T.y.2.2.t.R.+.P 8 & X > > > >         ",
"> > > > > > > > a z F *.e.T.y.3.3.y.R.+.U 8 & X                 ",
"> > > > > > > > s c H =.t.T.y.2.2.y.R.#.Y 9 = X                 ",
"> > > > > > > > s c G *.T.T.r.>.W +.R.+.T q x s > > > > > >     ",
"> > > > > > > > s z S ] >.T.:.} I Q R.R.P 9 x s > > > > > >     "
};
