/* XPM */
static char *result[] = {
/* columns rows colors chars-per-pixel */
"32 32 2 1 ",
"  c #0F0F10",
". c #1D1D1F",
/* pixels */
"  ............      ............",
"  ............      ............",
"..  ........  ....  ............",
"..  ........  ....  ............",
"....  ....  ........  ..........",
"....  ....  ........  ..........",
"......    ............  ........",
"......    ............  ........",
"......  ................  ......",
"......  ................  ......",
"....    ..................  ....",
"....    ..................  ....",
"        ..................      ",
"        ..................      ",
"..        ................    ..",
"..        ................    ..",
"....        ..............  ....",
"....        ..............  ....",
"....  ......  ..........  ......",
"....  ......  ..........  ......",
"..  ..........    ....  ........",
"..  ..........    ....  ........",
"  ..............      ..........",
"  ..............      ..........",
"..................    ........  ",
"..................    ........  ",
"..................      ....    ",
"..................      ....    ",
"..................              ",
"..................              ",
"................      ........  ",
"................      ........  "
};
