/* XPM */
static char *result[] = {
/* columns rows colors chars-per-pixel */
"32 32 146 2 ",
"   c #180E0F",
".  c #190E0F",
"X  c #1A0E0F",
"o  c #1B0E0F",
"O  c #1C0E0F",
"+  c #1D0E0F",
"@  c #1E0E0F",
"#  c #1F0E0F",
"$  c #0F0F10",
"%  c #100F10",
"&  c #110F10",
"*  c #120F10",
"=  c #140F10",
"-  c #160F10",
";  c #170F10",
":  c #1D1D1F",
">  c #1E1D1F",
",  c #1F1D1F",
"<  c #2C0000",
"1  c #200E0F",
"2  c #210E0F",
"3  c #220E0F",
"4  c #240E0F",
"5  c #270E0F",
"6  c #2A0D0E",
"7  c #280E0E",
"8  c #330000",
"9  c #300D0E",
"0  c #320D0E",
"q  c #340D0E",
"w  c #350D0E",
"e  c #360D0E",
"r  c #370D0E",
"t  c #211C1E",
"y  c #201D1F",
"u  c #221C1E",
"i  c #231C1E",
"p  c #241C1E",
"a  c #261C1E",
"s  c #271C1E",
"d  c #291B1D",
"f  c #2A1B1D",
"g  c #2B1B1D",
"h  c #291C1D",
"j  c #391915",
"k  c #311A1C",
"l  c #301B1C",
"z  c #331A1C",
"x  c #351A1C",
"c  c #361A1C",
"v  c #371A1C",
"b  c #39191B",
"n  c #3A191B",
"m  c #3C191B",
"M  c #3E191B",
"N  c #410C0D",
"B  c #450C0D",
"V  c #470C0D",
"C  c #4C0B0C",
"Z  c #4D0B0C",
"A  c #4E0B0C",
"S  c #530B0C",
"D  c #540B0C",
"F  c #570B0C",
"G  c #590B0B",
"H  c #5A0B0B",
"J  c #5B0B0B",
"K  c #5C0A0B",
"L  c #5F0A0B",
"P  c #4B1719",
"I  c #4C1719",
"U  c #4F1718",
"Y  c #4E1719",
"T  c #41181A",
"R  c #40191A",
"E  c #43181A",
"W  c #471819",
"Q  c #45181A",
"!  c #491819",
"~  c #571617",
"^  c #581617",
"/  c #5C1517",
"(  c #5D1517",
")  c #5E1516",
"_  c #5F1516",
"`  c #501718",
"'  c #511718",
"]  c #551618",
"[  c #6A0A0A",
"{  c #6B0A0A",
"}  c #6F090A",
"|  c #70090A",
" . c #72090A",
".. c #770909",
"X. c #7C0909",
"o. c #601516",
"O. c #631416",
"+. c #651415",
"@. c #661415",
"#. c #641416",
"$. c #6C1315",
"%. c #681415",
"&. c #691415",
"*. c #741213",
"=. c #731214",
"-. c #7A1113",
";. c #781213",
":. c #7C1112",
">. c #840809",
",. c #890808",
"<. c #8E0808",
"1. c #970707",
"2. c #900708",
"3. c #910708",
"4. c #950708",
"5. c #940E0F",
"6. c #960E0F",
"7. c #970E0F",
"8. c #9B0D0E",
"9. c #980E0F",
"0. c #9D0D0E",
"q. c #9E0D0E",
"w. c #9F0D0E",
"e. c #8A0F11",
"r. c #8C0F10",
"t. c #8D0F10",
"y. c #8E0F10",
"u. c #8F0F10",
"i. c #900F10",
"p. c #831011",
"a. c #801112",
"s. c #841011",
"d. c #861011",
"f. c #891011",
"g. c #AF0606",
"h. c #A30C0D",
"j. c #A20D0D",
"k. c #A00D0E",
"l. c #A50C0D",
"z. c #AB0B0C",
"x. c #B00B0B",
"c. c #B40A0B",
"v. c #B50A0B",
"b. c #B80A0A",
"n. c #CC0708",
"m. c #FF2E2E",
/* pixels */
"$ $ : : : : : : : : : : : : $ $ $ $ $ $ : : : : : : : : : : : : ",
"$ $ : : : : : : : : : : : : $ $ $ $ $ $ : : : : : : : : : : : : ",
": : $ $ : : : : : : : : $ $ : : : : $ $ : : : : : : : : : : : : ",
": : $ $ : : : : : : : : $ $ : : : : $ $ : : : : : : : : : : : : ",
": : : : $ $ : : : > & = i s h f f h s i = & > : : : : : : : : : ",
": : : : $ $ : > , t X 2 c m R E E R m c 2 X t , > : : : : : : : ",
": : : : : : % * ; 1 b W ] _ @.&.&.@._ ] W b 1 ; y > : : : : : : ",
": : : : : > *   4 e ~ $.a.y.7.0.0.7.y.a.$.~ e 4 a y > : : : : : ",
": : : : : , ; 4 Q _ :.6.z.m.m.m.m.m.m.z.6.:._ Q 4 ; , : : : : : ",
": : : : : t @ q ) a.k.m.m.j j j j j j m.m.k.a.) q @ t : : : : : ",
": : : : % ; 7 V ;.q.m.j j j j j j j j j 8 m.q.;.' x ; % : : : : ",
": : : : & + w H i.m.< j j j j j j j j j < 8 m.i.#.R + & : : : : ",
"$ $ $ $ = 4 N { j.m.< j j < < j j j j j < 8 m.j.*.I 4 = $ $ $ $ ",
"$ $ $ $ - 6 Z X.x.m.j j < j j < j j j j j 8 m.x.s.~ 6 - $ $ $ $ ",
": : $ $ . 9 F ,.m.m.m.m.j j j j m.m.m.j j j 8 m.i.o.9 . $ $ : : ",
": : $ $ o w K 3.m.m.m.m.m.j j m.m.m.m.m.j j j m.7.@.w o $ $ : : ",
": : : : O r L 4.m.m.m.m.m.j j m.m.m.m.m.j j j m.8.%.r O : : : : ",
": : : : o w J 2.m.m.m.m.m.j j m.m.m.m.m.j j j m.6.+.w o : : : : ",
": : : : . 9 ( r.m.m.m.m.j j j j m.m.m.j j j 8 m.>.S m s : : : : ",
": : : : - 5 ` -.h.m.8 j j j j j j j j j j 8 m.q.} B z i : : : : ",
": : $ $ t g T #.t.c.m.< j m.m.j < 8 m.m.m.m.1...) R g t : : : : ",
": : $ $ , p z U *.q.m.8 8 m.m.8 8 m.n.b.l.u.} D Q l p , : : : : ",
"$ $ : : > y h M _ e.v.m.< j j < j m.g.<. .G ` R l a y > : : : : ",
"$ $ : : : > t k Y *.w.m.< j j < j m.3.[ Z r z g p y > : : : : : ",
": : : : : : , f R o.d.m.m.m.m.m.m.9.| C 9 # i t , > : : : : $ $ ",
": : : : : : > p z P &.p.5.0.0.6.f.=.A 0 @ = : : : : : : : : $ $ ",
": : : : : : : t d v ! ^ O.&.&.+./ Y 0 3 ; & $ $ : : : : $ $ $ $ ",
": : : : : : : , u d z n R E E R m z @ ; * % $ $ : : : : $ $ $ $ ",
": : : : : : : > , t i s h f f h s i = & % $ $ $ $ $ $ $ $ $ $ $ ",
": : : : : : : : : : : : : : : : : : $ $ $ $ $ $ $ $ $ $ $ $ $ $ ",
": : : : : : : : : : : : : : : : $ $ $ $ $ $ : : : : : : : : $ $ ",
": : : : : : : : : : : : : : : : $ $ $ $ $ $ : : : : : : : : $ $ "
};
