/* XPM */
static char *result[] = {
/* columns rows colors chars-per-pixel */
"32 32 143 2 ",
"   c #180E0F",
".  c #190E0F",
"X  c #1A0E0F",
"o  c #1B0E0F",
"O  c #1C0E0F",
"+  c #1D0E0F",
"@  c #1E0E0F",
"#  c #0F0F10",
"$  c #100F10",
"%  c #110F10",
"&  c #120F10",
"*  c #140F10",
"=  c #150F10",
"-  c #160F10",
";  c #170F10",
":  c #1D1D1F",
">  c #1E1D1F",
",  c #1F1D1F",
"<  c #2C0000",
"1  c #200E0F",
"2  c #210E0F",
"3  c #240E0F",
"4  c #270E0F",
"5  c #2A0D0E",
"6  c #280E0E",
"7  c #2E0D0E",
"8  c #330000",
"9  c #300D0E",
"0  c #370D0D",
"q  c #340D0E",
"w  c #350D0E",
"e  c #360D0E",
"r  c #370D0E",
"t  c #3E0C0D",
"y  c #211C1E",
"u  c #201D1F",
"i  c #231C1E",
"p  c #241C1E",
"a  c #261C1E",
"s  c #271C1E",
"d  c #2A1B1D",
"f  c #2B1B1D",
"g  c #2C1B1D",
"h  c #2F1B1D",
"j  c #291C1D",
"k  c #391915",
"l  c #311A1C",
"z  c #301B1C",
"x  c #331A1C",
"c  c #351A1C",
"v  c #361A1C",
"b  c #39191B",
"n  c #3C191B",
"m  c #3E191B",
"M  c #410C0D",
"N  c #460C0D",
"B  c #470C0D",
"V  c #4D0B0C",
"C  c #4E0B0C",
"Z  c #530B0C",
"A  c #570B0C",
"S  c #590B0B",
"D  c #5A0B0B",
"F  c #5B0B0B",
"G  c #5C0A0B",
"H  c #5F0A0B",
"J  c #4B1719",
"K  c #4C1719",
"L  c #4F1718",
"P  c #4E1719",
"I  c #41181A",
"U  c #40191A",
"Y  c #42181A",
"T  c #43181A",
"R  c #471819",
"E  c #45181A",
"W  c #571617",
"Q  c #581617",
"!  c #5C1517",
"~  c #5D1517",
"^  c #5E1516",
"/  c #5F1516",
"(  c #501718",
")  c #511718",
"_  c #551618",
"`  c #600A0B",
"'  c #6B0A0A",
"]  c #72090A",
"[  c #7B0909",
"{  c #7C0909",
"}  c #7F0809",
"|  c #601516",
" . c #631416",
".. c #651415",
"X. c #661415",
"o. c #641416",
"O. c #6C1315",
"+. c #681415",
"@. c #691415",
"#. c #741213",
"$. c #771213",
"%. c #731214",
"&. c #7A1113",
"*. c #781213",
"=. c #7C1112",
"-. c #7F1112",
";. c #850809",
":. c #860809",
">. c #890808",
",. c #8D0808",
"<. c #980707",
"1. c #990707",
"2. c #900708",
"3. c #910708",
"4. c #950708",
"5. c #970708",
"6. c #950E0F",
"7. c #960E0F",
"8. c #970E0F",
"9. c #9B0D0E",
"0. c #980E0F",
"q. c #9D0D0E",
"w. c #9E0D0E",
"e. c #8B0F10",
"r. c #8A0F11",
"t. c #8E0F10",
"y. c #8F0F10",
"u. c #900F10",
"i. c #801112",
"p. c #841011",
"a. c #891011",
"s. c #AF0606",
"d. c #A30C0D",
"f. c #A20D0D",
"g. c #A00D0E",
"h. c #A50C0D",
"j. c #AB0B0C",
"k. c #B00606",
"l. c #B00B0B",
"z. c #B40A0B",
"x. c #B80A0A",
"c. c #CC0708",
"v. c #FF2E2E",
/* pixels */
"# # : : : : : : : : : : : : # # # # # # : : : : : : : : : : : : ",
"# # : : : : : : : : : : : : # # # # # # : : : : : : : : : : : : ",
": : # # : : : : : : : : # # : : : : # # : : : : : : : : : : : : ",
": : # # : : : : : : : : # # : : : : # # : : : : : : : : : : : : ",
": : : : # # : : : > % * i s j d d j s i * % > : : : : : : : : : ",
": : : : # # : > , y X 2 v n U T T U n v 2 X y , > : : : : : : : ",
": : : : : : $ & ; 1 b R _ / X.@.@.X./ _ R b 1 ; u > : : : : : : ",
": : : : : > &   3 e W O.i.t.8.q.q.8.t.i.O.W e 3 a u > : : : : : ",
": : : : : , ; 3 E / =.7.j.v.v.v.v.v.v.j.7.=./ E 3 ; , : : : : : ",
": : : : : y @ q ^ i.g.v.v.k k k k k k v.v.g.i.^ q @ y : : : : : ",
": : : : $ ; 6 B *.w.v.8 k k k k k k k k k v.w.*.) c ; $ : : : : ",
": : : : % + w D u.v.8 < k k k k k k k k k < v.u.o.U + % : : : : ",
"# # # # * 3 M ' f.v.8 < k k k k k < < k k < v.f.#.K 3 * # # # # ",
"# # # # - 5 V { l.v.8 k k k k k < k k < k k v.l.p.W 5 - # # # # ",
": : # # . 9 A >.v.8 k k k v.v.v.k k k k v.v.v.v.u.| 9 . # # : : ",
": : # # o w G 3.v.k k k v.v.v.v.v.k k v.v.v.v.v.8.X.w o # # : : ",
": : : : O r H 4.v.k k k v.v.v.v.v.k k v.v.v.v.v.9.+.r O : : : : ",
": : : : o w F 2.v.k k k v.v.v.v.v.k k v.v.v.v.v.7...w o : : : : ",
": : : : . 9 ~ e.v.8 k k k v.v.v.k k k k v.v.v.v.;.Z n s : : : : ",
": : : : - 4 ( $.w.v.8 k k k k k k k k k k 8 v.d.] N x i : : : : ",
": : # # y f U ^ -.w.v.v.v.v.8 < k v.v.k < v.s.:.o.I f y : : : : ",
": : # # , p z E ^ $.y.h.x.c.v.8 8 v.v.8 8 v.<.' L x p , : : : : ",
"# # : : > u a z U (  .&.6.z.v.k < k k < v.k.r./ m j u > : : : : ",
"# # : : : > u p f x Y W %.8.v.k < k k < v.1.#.P l y > : : : : : ",
": : : : : : > , y i g n W *.0.v.v.v.v.v.v.} | U d , : : : : # # ",
": : : : : : : : : : y f m Q %.a.7.q.5.,.[ ` J x p > : : : : # # ",
": : : : : : : : : : , p h m P ! ..@.` S C t 5 O y : : : # # # # ",
": : : : : : : : : : > u p f x n U T 0 q 7 4 O = , : : : # # # # ",
": : : : : : : : : : : > , y i s j d + o . - * % $ # # # # # # # ",
": : : : : : : : : : : : : : : : : : # # # # # # # # # # # # # # ",
": : : : : : : : : : : : : : : : # # # # # # : : : : : : : : # # ",
": : : : : : : : : : : : : : : : # # # # # # : : : : : : : : # # "
};
