/* XPM */
static char *result[] = {
/* columns rows colors chars-per-pixel */
"32 32 143 2 ",
"   c #180E0F",
".  c #190E0F",
"X  c #1A0E0F",
"o  c #1B0E0F",
"O  c #1C0E0F",
"+  c #1D0E0F",
"@  c #1E0E0F",
"#  c #0F0F10",
"$  c #100F10",
"%  c #110F10",
"&  c #120F10",
"*  c #140F10",
"=  c #160F10",
"-  c #170F10",
";  c #1D1D1F",
":  c #1E1D1F",
">  c #1F1D1F",
",  c #2C0000",
"<  c #200E0F",
"1  c #210E0F",
"2  c #240E0F",
"3  c #270E0F",
"4  c #2A0D0E",
"5  c #280E0E",
"6  c #330000",
"7  c #300D0E",
"8  c #340D0E",
"9  c #350D0E",
"0  c #360D0E",
"q  c #370D0E",
"w  c #3A0C0D",
"e  c #211C1E",
"r  c #201D1F",
"t  c #221C1E",
"y  c #231C1E",
"u  c #241C1E",
"i  c #261C1E",
"p  c #271C1E",
"a  c #291B1D",
"s  c #2A1B1D",
"d  c #2B1B1D",
"f  c #291C1D",
"g  c #391915",
"h  c #311A1C",
"j  c #301B1C",
"k  c #331A1C",
"l  c #351A1C",
"z  c #361A1C",
"x  c #371A1C",
"c  c #39191B",
"v  c #3A191B",
"b  c #3C191B",
"n  c #3E191B",
"m  c #400C0D",
"M  c #410C0D",
"N  c #450C0D",
"B  c #470C0D",
"V  c #4D0B0C",
"C  c #490C0C",
"Z  c #530B0C",
"A  c #540B0C",
"S  c #570B0C",
"D  c #5A0B0B",
"F  c #5B0B0B",
"G  c #5C0A0B",
"H  c #5F0A0B",
"J  c #4B1719",
"K  c #4C1719",
"L  c #4F1718",
"P  c #4E1719",
"I  c #41181A",
"U  c #40191A",
"Y  c #42181A",
"T  c #43181A",
"R  c #471819",
"E  c #45181A",
"W  c #491819",
"Q  c #571617",
"!  c #581617",
"~  c #5D1517",
"^  c #5E1516",
"/  c #5F1516",
"(  c #501718",
")  c #511718",
"_  c #551618",
"`  c #640A0B",
"'  c #6B0A0A",
"]  c #6F090A",
"[  c #70090A",
"{  c #73090A",
"}  c #770909",
"|  c #7C0909",
" . c #601516",
".. c #631416",
"X. c #651415",
"o. c #661415",
"O. c #641416",
"+. c #6C1315",
"@. c #681415",
"#. c #691415",
"$. c #741213",
"%. c #771213",
"&. c #7A1113",
"*. c #781213",
"=. c #7C1112",
"-. c #830809",
";. c #840809",
":. c #890808",
">. c #8D0808",
",. c #980707",
"<. c #900708",
"1. c #910708",
"2. c #950708",
"3. c #940E0F",
"4. c #960E0F",
"5. c #970E0F",
"6. c #9B0D0E",
"7. c #9D0D0E",
"8. c #9E0D0E",
"9. c #9F0D0E",
"0. c #8B0F10",
"q. c #8A0F11",
"w. c #8C0F10",
"e. c #8D0F10",
"r. c #8E0F10",
"t. c #900F10",
"y. c #910F10",
"u. c #831011",
"i. c #801112",
"p. c #841011",
"a. c #861011",
"s. c #A20607",
"d. c #A80606",
"f. c #A30C0D",
"g. c #A20D0D",
"h. c #A00D0E",
"j. c #A60C0D",
"k. c #AB0B0C",
"l. c #B00B0B",
"z. c #B40A0B",
"x. c #B50A0B",
"c. c #BA0A0A",
"v. c #FF2E2E",
/* pixels */
"# # ; ; ; ; ; ; ; ; ; ; ; ; # # # # # # ; ; ; ; ; ; ; ; ; ; ; ; ",
"# # ; ; ; ; ; ; ; ; ; ; ; ; # # # # # # ; ; ; ; ; ; ; ; ; ; ; ; ",
"; ; # # ; ; ; ; ; ; ; ; # # ; ; ; ; # # ; ; ; ; ; ; ; ; ; ; ; ; ",
"; ; # # ; ; ; ; ; ; ; ; # # ; ; ; ; # # ; ; ; ; ; ; ; ; ; ; ; ; ",
"; ; ; ; # # ; ; ; : % * y p f s s f p y * % : ; ; ; ; ; ; ; ; ; ",
"; ; ; ; # # ; : > e X 1 z b U T T U b z 1 X e > : ; ; ; ; ; ; ; ",
"; ; ; ; ; ; $ & - < c R _ / o.#.#.o./ _ R c < - r : ; ; ; ; ; ; ",
"; ; ; ; ; : &   2 0 Q +.i.r.5.7.7.5.r.i.+.Q 0 2 i r : ; ; ; ; ; ",
"; ; ; ; ; > - 2 E / =.4.k.v.v.v.v.v.v.k.4.=./ E 2 - > ; ; ; ; ; ",
"; ; ; ; ; e @ 8 ^ i.h.v.v.g g g g g g v.v.h.i.^ 8 @ e ; ; ; ; ; ",
"; ; ; ; $ - 5 B *.8.v.g g g g g g g g g 6 v.8.*.) l - $ ; ; ; ; ",
"; ; ; ; % + 9 D t.v., g g g g g g g g g , 6 v.t.O.U + % ; ; ; ; ",
"# # # # * 2 M ' g.v., g g g g g g g g g , 6 v.g.$.K 2 * # # # # ",
"# # # # = 4 V | l.v.g g g g g g g g g g g 6 v.l.p.Q 4 = # # # # ",
"; ; # # . 7 S :.v.g g g g g g g g g g g g g 6 v.t. .7 . # # ; ; ",
"; ; # # o 9 G 1.v.g g g g g g g g g g g g g g v.5.o.9 o # # ; ; ",
"; ; ; ; O q H 2.v.g g g g g g g g g g g g g g v.6.@.q O ; ; ; ; ",
"; ; ; ; o 9 F <.v.g g g g g g g g g g g g g g v.4.X.9 o ; ; ; ; ",
"; ; ; ; . 7 ~ w.v.v.g g g g g g g g g g g g 6 v.;.Z b p ; ; ; ; ",
"; ; ; ; = 3 ( &.f.v.6 g g g g g g g g g g 6 v.8.] N k y ; ; ; ; ",
"; ; # # e d I O.e.z.v., g g g v.v.v.v.v.v.v.,.} ^ U d e ; ; ; ; ",
"; ; # # > u k L $.8.v.6 6 g v.6 6 6 v.c.j.y.[ A E j u > ; ; ; ; ",
"# # ; ; : r f n / q.x.v., v.6 6 6 v.d.>.{ F ) U j i r : ; ; ; ; ",
"# # ; ; ; : e h P $.9.v., v.6 6 v.s.-.` C q l d u r : ; ; ; ; ; ",
"; ; ; ; ; ; > s U  .a.v.v.v.v.v.8.p.G m 4 @ u e > : ; ; ; ; # # ",
"; ; ; ; ; ; : u k J #.u.3.6.4.0.%./ w 3   & : ; ; ; ; ; ; ; # # ",
"; ; ; ; ; ; ; e a x W ! ..@.X.~ ( U 2   & $ # # ; ; ; ; # # # # ",
"; ; ; ; ; ; ; > t a k v U Y U b k d - & $ # # # ; ; ; ; # # # # ",
"; ; ; ; ; ; ; : > e y p f a f p y e % $ # # # # # # # # # # # # ",
"; ; ; ; ; ; ; ; ; ; ; ; ; ; ; ; ; ; # # # # # # # # # # # # # # ",
"; ; ; ; ; ; ; ; ; ; ; ; ; ; ; ; # # # # # # ; ; ; ; ; ; ; ; # # ",
"; ; ; ; ; ; ; ; ; ; ; ; ; ; ; ; # # # # # # ; ; ; ; ; ; ; ; # # "
};
