/* XPM */
static char *result[] = {
/* columns rows colors chars-per-pixel */
"32 32 139 2 ",
"   c #180E0F",
".  c #190E0F",
"X  c #1A0E0F",
"o  c #1B0E0F",
"O  c #1C0E0F",
"+  c #1D0E0F",
"@  c #1E0E0F",
"#  c #0F0F10",
"$  c #100F10",
"%  c #110F10",
"&  c #120F10",
"*  c #140F10",
"=  c #160F10",
"-  c #170F10",
";  c #1D1D1F",
":  c #1E1D1F",
">  c #1F1D1F",
",  c #2C0000",
"<  c #200E0F",
"1  c #210E0F",
"2  c #220E0F",
"3  c #240E0F",
"4  c #270E0F",
"5  c #2A0D0E",
"6  c #280E0E",
"7  c #330000",
"8  c #300D0E",
"9  c #320D0E",
"0  c #340D0E",
"q  c #350D0E",
"w  c #360D0E",
"e  c #370D0E",
"r  c #211C1E",
"t  c #201D1F",
"y  c #231C1E",
"u  c #241C1E",
"i  c #261C1E",
"p  c #271C1E",
"a  c #2A1B1D",
"s  c #2B1B1D",
"d  c #2F1B1D",
"f  c #291C1D",
"g  c #391915",
"h  c #301B1C",
"j  c #331A1C",
"k  c #351A1C",
"l  c #361A1C",
"z  c #39191B",
"x  c #381A1B",
"c  c #3C191B",
"v  c #3E191B",
"b  c #410C0D",
"n  c #430C0D",
"m  c #450C0D",
"M  c #470C0D",
"N  c #4D0B0C",
"B  c #4E0B0C",
"V  c #480C0C",
"C  c #520B0C",
"Z  c #530B0C",
"A  c #570B0C",
"S  c #580B0B",
"D  c #5A0B0B",
"F  c #5B0B0B",
"G  c #5C0A0B",
"H  c #5F0A0B",
"J  c #4B1719",
"K  c #4C1719",
"L  c #4E1719",
"P  c #40191A",
"I  c #43181A",
"U  c #471819",
"Y  c #45181A",
"T  c #46181A",
"R  c #571617",
"E  c #581617",
"W  c #5C1517",
"Q  c #5D1517",
"!  c #5E1516",
"~  c #5F1516",
"^  c #501718",
"/  c #511718",
"(  c #531618",
")  c #551618",
"_  c #630A0B",
"`  c #6A0A0A",
"'  c #6B0A0A",
"]  c #6E090A",
"[  c #6F090A",
"{  c #7A0909",
"}  c #7C0909",
"|  c #7D0909",
" . c #601516",
".. c #621416",
"X. c #651415",
"o. c #661415",
"O. c #641416",
"+. c #6C1315",
"@. c #681415",
"#. c #691415",
"$. c #741213",
"%. c #771213",
"&. c #731214",
"*. c #781213",
"=. c #7C1112",
"-. c #800809",
";. c #820809",
":. c #840809",
">. c #890808",
",. c #8E0808",
"<. c #9F0707",
"1. c #900708",
"2. c #910708",
"3. c #950708",
"4. c #950E0F",
"5. c #960E0F",
"6. c #970E0F",
"7. c #9B0D0E",
"8. c #9D0D0E",
"9. c #9E0D0E",
"0. c #8B0F10",
"q. c #8E0F10",
"w. c #900F10",
"e. c #801112",
"r. c #821012",
"t. c #841011",
"y. c #851011",
"u. c #871011",
"i. c #891011",
"p. c #A90606",
"a. c #A20D0D",
"s. c #A00D0E",
"d. c #A50C0D",
"f. c #A70C0D",
"g. c #AB0B0C",
"h. c #AE0B0C",
"j. c #B00B0B",
"k. c #C50809",
"l. c #FF2E2E",
/* pixels */
"# # ; ; ; ; ; ; ; ; ; ; ; ; # # # # # # ; ; ; ; ; ; ; ; ; ; ; ; ",
"# # ; ; ; ; ; ; ; ; ; ; ; ; # # # # # # ; ; ; ; ; ; ; ; ; ; ; ; ",
"; ; # # ; ; ; ; ; ; ; ; # # ; ; ; ; # # ; ; ; ; ; ; ; ; ; ; ; ; ",
"; ; # # ; ; ; ; ; ; ; ; # # ; ; ; ; # # ; ; ; ; ; ; ; ; ; ; ; ; ",
"; ; ; ; # # ; ; ; : % * y p f a a f p y * % : ; ; ; ; ; ; ; ; ; ",
"; ; ; ; # # ; : > r X 1 l c P I I P c l 1 X r > : ; ; ; ; ; ; ; ",
"; ; ; ; ; ; $ & - < z U ) ~ o.#.#.o.~ ) U z < - t : ; ; ; ; ; ; ",
"; ; ; ; ; : &   3 w R +.e.q.6.8.8.6.q.e.+.R w 3 i t : ; ; ; ; ; ",
"; ; ; ; ; > - 3 Y ~ =.5.g.l.l.l.l.l.l.g.5.=.~ Y 3 - > ; ; ; ; ; ",
"; ; ; ; ; r @ 0 ! e.s.l.l.g g g g g g l.l.s.e.! 0 @ r ; ; ; ; ; ",
"; ; ; ; $ - 6 M *.9.l.7 g g g g g g g g 7 l.9.*./ k - $ ; ; ; ; ",
"; ; ; ; % + q D w.l.7 , g g g g g g g g , 7 l.w.O.P + % ; ; ; ; ",
"# # # # * 3 b ' a.l.7 , g g g , , g g g , 7 l.a.$.K 3 * # # # # ",
"# # # # = 5 N } j.l.7 g g g , g g , g g g 7 l.j.t.R 5 = # # # # ",
"; ; # # . 8 A >.l.7 g l.l.l.g g g g l.l.l.g 7 l.w. .8 . # # ; ; ",
"; ; # # o q G 2.l.g l.l.l.l.l.g g l.l.l.l.l.g l.6.o.q o # # ; ; ",
"; ; ; ; O e H 3.l.g l.l.l.l.l.g g l.l.l.l.l.g l.7.@.e O ; ; ; ; ",
"; ; ; ; o q F 1.l.g l.l.l.l.l.g g l.l.l.l.l.g l.5.X.q o ; ; ; ; ",
"; ; ; ; . 8 Q 0.l.7 g l.l.l.g g g g l.l.l.g 7 l.:.Z c p ; ; ; ; ",
"; ; ; ; = 4 ^ %.9.l.7 g g g g g g g g g g 7 l.9.[ m j y ; ; ; ; ",
"; ; # # r s P ! r.d.l.l.7 , g l.l.g , 7 l.l.<.{ ! P s r ; ; ; ; ",
"; ; # # > u h Y ..y.f.k.l.7 7 l.l.7 7 l.k.f.| S Y h u > ; ; ; ; ",
"# # ; ; : t i h T O.u.h.l.g , g g , g l.p.-.O.T h i t : ; ; ; ; ",
"# # ; ; ; : t u j J +.4.l.g , g g , g l.,._ J j u t : ; ; ; ; ; ",
"; ; ; ; ; ; : > p x ( %.6.l.l.l.l.l.l.2.] V x p > : ; ; ; ; # # ",
"; ; ; ; ; ; ; ; r s v E &.i.5.8.8.5.;.` B 9 s r ; ; ; ; ; ; # # ",
"; ; ; ; ; ; ; ; > u d v L W X.#.#.X.C n 9 2 - % ; ; ; ; # # # # ",
"; ; ; ; ; ; ; ; : t u s j c P I I P 8 4 @ - & $ ; ; ; ; # # # # ",
"; ; ; ; ; ; ; ; ; : > r y p f a a f . = * % $ # # # # # # # # # ",
"; ; ; ; ; ; ; ; ; ; ; ; ; ; ; ; ; ; # # # # # # # # # # # # # # ",
"; ; ; ; ; ; ; ; ; ; ; ; ; ; ; ; # # # # # # ; ; ; ; ; ; ; ; # # ",
"; ; ; ; ; ; ; ; ; ; ; ; ; ; ; ; # # # # # # ; ; ; ; ; ; ; ; # # "
};
