/* XPM */
static char *result[] = {
/* columns rows colors chars-per-pixel */
"32 32 143 2 ",
"   c #180E0F",
".  c #190E0F",
"X  c #1A0E0F",
"o  c #1B0E0F",
"O  c #1C0E0F",
"+  c #1D0E0F",
"@  c #1E0E0F",
"#  c #1F0E0F",
"$  c #0F0F10",
"%  c #100F10",
"&  c #110F10",
"*  c #120F10",
"=  c #140F10",
"-  c #160F10",
";  c #170F10",
":  c #1D1D1F",
">  c #1E1D1F",
",  c #1F1D1F",
"<  c #2C0000",
"1  c #200E0F",
"2  c #210E0F",
"3  c #240E0F",
"4  c #250E0F",
"5  c #270E0F",
"6  c #290D0E",
"7  c #2A0D0E",
"8  c #2B0D0E",
"9  c #300D0E",
"0  c #320D0E",
"q  c #340D0E",
"w  c #350D0E",
"e  c #360D0E",
"r  c #370D0E",
"t  c #390D0D",
"y  c #3B0C0D",
"u  c #211C1E",
"i  c #201D1F",
"p  c #231C1E",
"a  c #241C1E",
"s  c #251C1E",
"d  c #261C1E",
"f  c #271C1E",
"g  c #2A1B1D",
"h  c #2B1B1D",
"j  c #2D1B1D",
"k  c #2F1B1D",
"l  c #291C1D",
"z  c #281C1E",
"x  c #391915",
"c  c #301B1C",
"v  c #331A1C",
"b  c #351A1C",
"n  c #361A1C",
"m  c #39191B",
"M  c #381A1B",
"N  c #3C191B",
"B  c #3E191B",
"V  c #430C0D",
"C  c #450C0D",
"Z  c #4D0B0C",
"A  c #480C0C",
"S  c #570B0B",
"D  c #530B0C",
"F  c #540B0C",
"G  c #550B0C",
"H  c #560B0C",
"J  c #5B0B0B",
"K  c #5E0A0B",
"L  c #4C1719",
"P  c #4E1719",
"I  c #40191A",
"U  c #42181A",
"Y  c #43181A",
"T  c #471819",
"R  c #45181A",
"E  c #481819",
"W  c #571617",
"Q  c #581617",
"!  c #5E1516",
"~  c #5F1516",
"^  c #501718",
"/  c #511718",
"(  c #531618",
")  c #551618",
"_  c #630A0B",
"`  c #650A0B",
"'  c #6F090A",
"]  c #70090A",
"[  c #72090A",
"{  c #770909",
"}  c #7D0909",
"|  c #7E0909",
" . c #601516",
".. c #621416",
"X. c #651415",
"o. c #661415",
"O. c #641416",
"+. c #6C1315",
"@. c #681415",
"#. c #691415",
"$. c #741213",
"%. c #751213",
"&. c #761213",
"*. c #771213",
"=. c #721214",
"-. c #7A1113",
";. c #781213",
":. c #7C1112",
">. c #840809",
",. c #870808",
"<. c #860809",
"1. c #870809",
"2. c #8B0808",
"3. c #970707",
"4. c #960E0F",
"5. c #970E0F",
"6. c #9B0D0E",
"7. c #9C0D0E",
"8. c #9D0D0E",
"9. c #9E0D0E",
"0. c #9F0D0E",
"q. c #8B0F10",
"w. c #8D0F10",
"e. c #8E0F10",
"r. c #8F0F10",
"t. c #900F10",
"y. c #831011",
"u. c #801112",
"i. c #821012",
"p. c #841011",
"a. c #A20607",
"s. c #AC0606",
"d. c #A20D0D",
"f. c #A00D0E",
"g. c #A50C0D",
"h. c #A70C0D",
"j. c #AB0B0C",
"k. c #A80C0D",
"l. c #B10606",
"z. c #B00B0B",
"x. c #B90A0A",
"c. c #C40405",
"v. c #FF2E2E",
/* pixels */
"$ $ : : : : : : : : : : : : $ $ $ $ $ $ : : : : : : : : : : : : ",
"$ $ : : : : : : : : : : : : $ $ $ $ $ $ : : : : : : : : : : : : ",
": : $ $ : : : : : : : : $ $ : : : : $ $ : : : : : : : : : : : : ",
": : $ $ : : : : : : : : $ $ : : : : $ $ : : : : : : : : : : : : ",
": : : : $ $ : : : > & = p f l g g l f p = & > : : : : : : : : : ",
": : : : $ $ : > , u X 2 n N I Y Y I N n 2 X u , > : : : : : : : ",
": : : : : : % * ; 1 m T ) ~ o.#.#.o.~ ) T m 1 ; i > : : : : : : ",
": : : : : > *   3 e W +.u.e.5.8.8.5.e.u.+.W e 3 d i > : : : : : ",
": : : : : , ; 3 R ~ :.4.j.v.v.v.v.v.v.j.4.:.~ R 3 ; , : : : : : ",
": : : : : u @ q ! u.f.v.v.x x x x < < v.v.f.u.! q @ u : : : : : ",
": : : : $ - 5 C *.9.v.x x x x < < < < < < v.9.;./ b ; % : : : : ",
": : : : % X 9 G w.v.x x x < < < < < < < < < v.t.O.I + & : : : : ",
"$ $ $ $ & @ t _ 7.v.x x x < < < < < < < < < v.d.$.L 3 = $ $ $ $ ",
"$ $ $ $ = 4 V ] h.v.x x x x < < < < < < < < v.z.p.W 7 - $ $ $ $ ",
": : $ $ - 8 Z } s.v.v.< x x x < < < < < < < x v.t. .9 . $ $ : : ",
": : $ $   9 H ,.v.v.v.v.< x x < < < x x x x x v.5.o.w o $ $ : : ",
": : : : . 0 S 2.v.v.v.v.< x x x x x x x x x x v.6.@.r O : : : : ",
": : : :   9 G 1.v.v.v.v.< x x x x x x x x x x v.4.X.w o : : : : ",
": : : : - 6 ) u.j.v.v.< x x x x x x x x x x < v.>.D N f : : : : ",
": : : : = 2 T +.4.v.x x x < x x x x x x < < v.9.' C v p : : : : ",
": : $ $ , z m W u.h.v.v.v.< < v.v.v.v.v.v.v.3.{ ! I h u : : : : ",
": : $ $ > u j R @.t.x.v.v.x x v.c.l.k.0.4.q.' F R c a , : : : : ",
"$ $ : : : , a b ( -.g.v.x x x v.a.<.[ ` J D ^ I c d i > : : : : ",
"$ $ : : : > i h U X.r.v.x x v.g.| K A y w 9 v h a i > : : : : : ",
": : : : : : > a b ^ %.4.v.v.9.i...E 6 # o . p u , > : : : : $ $ ",
": : : : : : : u h B Q =.y.p.&.! R c ; & $ $ : : : : : : : : $ $ ",
": : : : : : : , a k B P W W P I c d * % $ $ $ $ : : : : $ $ $ $ ",
": : : : : : : > i a h v M M v h a i % $ $ $ $ $ : : : : $ $ $ $ ",
": : : : : : : : > , u p s s p u , > $ $ $ $ $ $ $ $ $ $ $ $ $ $ ",
": : : : : : : : : : : : : : : : : : $ $ $ $ $ $ $ $ $ $ $ $ $ $ ",
": : : : : : : : : : : : : : : : $ $ $ $ $ $ : : : : : : : : $ $ ",
": : : : : : : : : : : : : : : : $ $ $ $ $ $ : : : : : : : : $ $ "
};
