/* XPM */
static char *result[] = {
/* columns rows colors chars-per-pixel */
"32 32 137 2 ",
"   c #180E0F",
".  c #190E0F",
"X  c #1A0E0F",
"o  c #1B0E0F",
"O  c #1C0E0F",
"+  c #1D0E0F",
"@  c #1E0E0F",
"#  c #0F0F10",
"$  c #100F10",
"%  c #110F10",
"&  c #120F10",
"*  c #140F10",
"=  c #150F10",
"-  c #160F10",
";  c #170F10",
":  c #1D1D1F",
">  c #1E1D1F",
",  c #1F1D1F",
"<  c #2C0000",
"1  c #200E0F",
"2  c #210E0F",
"3  c #240E0F",
"4  c #270E0F",
"5  c #2A0D0E",
"6  c #280E0E",
"7  c #2E0D0E",
"8  c #330000",
"9  c #300D0E",
"0  c #340D0E",
"q  c #350D0E",
"w  c #360D0E",
"e  c #370D0E",
"r  c #3E0C0D",
"t  c #211C1E",
"y  c #201D1F",
"u  c #231C1E",
"i  c #241C1E",
"p  c #261C1E",
"a  c #271C1E",
"s  c #2A1B1D",
"d  c #2B1B1D",
"f  c #291C1D",
"g  c #391915",
"h  c #311A1C",
"j  c #301B1C",
"k  c #331A1C",
"l  c #351A1C",
"z  c #361A1C",
"x  c #371A1C",
"c  c #39191B",
"v  c #3C191B",
"b  c #3E191B",
"n  c #410C0D",
"m  c #460C0D",
"M  c #470C0D",
"N  c #4D0B0C",
"B  c #4E0B0C",
"V  c #530B0C",
"C  c #570B0C",
"Z  c #590B0B",
"A  c #5A0B0B",
"S  c #5B0B0B",
"D  c #5C0A0B",
"F  c #5F0A0B",
"G  c #4B1719",
"H  c #4C1719",
"J  c #4F1718",
"K  c #4E1719",
"L  c #41181A",
"P  c #40191A",
"I  c #42181A",
"U  c #43181A",
"Y  c #471819",
"T  c #45181A",
"R  c #46181A",
"E  c #571617",
"W  c #5D1517",
"Q  c #5E1516",
"!  c #5F1516",
"~  c #501718",
"^  c #511718",
"/  c #541618",
"(  c #551618",
")  c #600A0B",
"_  c #6B0A0A",
"`  c #72090A",
"'  c #7B0909",
"]  c #7C0909",
"[  c #7F0809",
"{  c #601516",
"}  c #651415",
"|  c #661415",
" . c #641416",
".. c #6D1314",
"X. c #6C1315",
"o. c #681415",
"O. c #691415",
"+. c #741213",
"@. c #771213",
"#. c #7B1113",
"$. c #781213",
"%. c #7C1112",
"&. c #7F1112",
"*. c #850809",
"=. c #860809",
"-. c #890808",
";. c #8D0808",
":. c #980707",
">. c #990707",
",. c #900708",
"<. c #910708",
"1. c #950708",
"2. c #940E0F",
"3. c #960E0F",
"4. c #970E0F",
"5. c #9B0D0E",
"6. c #9D0D0E",
"7. c #9E0D0E",
"8. c #8B0F10",
"9. c #8A0F11",
"0. c #8E0F10",
"q. c #900F10",
"w. c #910F10",
"e. c #801112",
"r. c #841011",
"t. c #AF0606",
"y. c #A30C0D",
"u. c #A20D0D",
"i. c #A00D0E",
"p. c #A60C0D",
"a. c #A70C0D",
"s. c #AB0B0C",
"d. c #AD0B0C",
"f. c #B00606",
"g. c #B00B0B",
"h. c #BA0A0A",
"j. c #FF2E2E",
/* pixels */
"# # : : : : : : : : : : : : # # # # # # : : : : : : : : : : : : ",
"# # : : : : : : : : : : : : # # # # # # : : : : : : : : : : : : ",
": : # # : : : : : : : : # # : : : : # # : : : : : : : : : : : : ",
": : # # : : : : : : : : # # : : : : # # : : : : : : : : : : : : ",
": : : : # # : : : > % * u a f s s f a u * % > : : : : : : : : : ",
": : : : # # : > , t X 2 z v P U U P v z 2 X t , > : : : : : : : ",
": : : : : : $ & ; 1 c Y ( ! | O.O.| ! ( Y c 1 ; y > : : : : : : ",
": : : : : > &   3 w E X.e.0.4.6.6.4.0.e.X.E w 3 p y > : : : : : ",
": : : : : , ; 3 T ! %.3.s.j.j.j.j.j.j.s.3.%.! T 3 ; , : : : : : ",
": : : : : t @ 0 Q e.i.j.j.g g g g g g j.j.i.e.Q 0 @ t : : : : : ",
": : : : $ ; 6 M $.7.j.8 g g g g g g g g g j.7.$.^ l ; $ : : : : ",
": : : : % + q A q.j.8 < g g g g g g g g g < j.q. .P + % : : : : ",
"# # # # * 3 n _ u.j.8 < g g g g g g g g g < j.u.+.H 3 * # # # # ",
"# # # # - 5 N ] g.j.8 g g g g g g g g g g g j.g.r.E 5 - # # # # ",
": : # # . 9 C -.j.8 g g g g g g g g g g g g g j.q.{ 9 . # # : : ",
": : # # o q D <.j.g g g g g g g g g g g g g g j.4.| q o # # : : ",
": : : : O e F 1.j.g g g g g g g g g g g g g g j.5.o.e O : : : : ",
": : : : o q S ,.j.g g g g g g g g g g g g g g j.3.} q o : : : : ",
": : : : . 9 W 8.j.8 g g g g g g g g g g g g j.j.*.V v a : : : : ",
": : : : - 4 ~ @.7.j.8 g g g g g g g g g g 8 j.y.` m k u : : : : ",
": : # # t d P Q &.7.j.j.j.j.j.j.j.g g g < j.t.=. .L d t : : : : ",
": : # # , i j T Q $.w.p.h.j.8 8 8 j.g 8 8 j.:._ J k i , : : : : ",
"# # : : > y p j P ^ } #.2.d.j.8 8 8 j.< j.f.9.! b f y > : : : : ",
"# # : : : > y i d l I / ..9.a.j.8 8 j.< j.>.+.K h t > : : : : : ",
": : : : : : > , t i d x G | r.7.j.j.j.j.j.[ { P s , : : : : # # ",
": : : : : : : : : > y p k R ! @.8.3.1.;.' ) G k i > : : : : # # ",
": : : : : : : : : : > y p j P ~ W } F Z B r 5 O t : : : # # # # ",
": : : : : : : : : : : > y i d k v P e 0 7 4 O = , : : : # # # # ",
": : : : : : : : : : : : > , t u a f O o . - * % $ # # # # # # # ",
": : : : : : : : : : : : : : : : : : # # # # # # # # # # # # # # ",
": : : : : : : : : : : : : : : : # # # # # # : : : : : : : : # # ",
": : : : : : : : : : : : : : : : # # # # # # : : : : : : : : # # "
};
