/* XPM */
static char *result[] = {
/* columns rows colors chars-per-pixel */
"32 32 138 2 ",
"   c #170F0F",
".  c #180E0F",
"X  c #190E0F",
"o  c #1A0E0F",
"O  c #1B0E0F",
"+  c #1C0E0F",
"@  c #1D0E0F",
"#  c #1E0E0F",
"$  c #0F0F10",
"%  c #100F10",
"&  c #110F10",
"*  c #120F10",
"=  c #140F10",
"-  c #160F10",
";  c #170F10",
":  c #1D1D1F",
">  c #1E1D1F",
",  c #1F1D1F",
"<  c #2C0000",
"1  c #200E0F",
"2  c #210E0F",
"3  c #220E0F",
"4  c #240E0F",
"5  c #250E0F",
"6  c #270E0F",
"7  c #2A0D0E",
"8  c #2B0D0E",
"9  c #280E0E",
"0  c #2C0D0E",
"q  c #300D0E",
"w  c #320D0E",
"e  c #340D0E",
"r  c #350D0E",
"t  c #360D0E",
"y  c #370D0E",
"u  c #3B0C0D",
"i  c #211C1E",
"p  c #201D1F",
"a  c #231C1E",
"s  c #241C1E",
"d  c #261C1E",
"f  c #271C1E",
"g  c #2A1B1D",
"h  c #2B1B1D",
"j  c #2C1B1D",
"k  c #2D1B1D",
"l  c #2E1B1D",
"z  c #291C1D",
"x  c #281C1E",
"c  c #391915",
"v  c #301B1C",
"b  c #331A1C",
"n  c #351A1C",
"m  c #361A1C",
"M  c #39191B",
"N  c #3C191B",
"B  c #3E191B",
"V  c #410C0D",
"C  c #430C0D",
"Z  c #470C0D",
"A  c #4D0B0C",
"S  c #4E0B0C",
"D  c #4A0C0C",
"F  c #570B0C",
"G  c #5A0B0B",
"H  c #5B0B0B",
"J  c #5C0A0B",
"K  c #5F0A0B",
"L  c #4E1719",
"P  c #40191A",
"I  c #42181A",
"U  c #43181A",
"Y  c #471819",
"T  c #45181A",
"R  c #481819",
"E  c #571617",
"W  c #5D1517",
"Q  c #5E1516",
"!  c #5F1516",
"~  c #501718",
"^  c #531618",
"/  c #551618",
"(  c #630A0B",
")  c #690A0A",
"_  c #6B0A0A",
"`  c #6C0A0A",
"'  c #780909",
"]  c #7B0909",
"[  c #7C0909",
"{  c #611516",
"}  c #621416",
"|  c #651415",
" . c #661415",
".. c #671415",
"X. c #6C1315",
"o. c #6E1314",
"O. c #691415",
"+. c #761213",
"@. c #771213",
"#. c #7A1113",
"$. c #781213",
"%. c #7C1112",
"&. c #7F1112",
"*. c #880808",
"=. c #890808",
"-. c #8F0808",
";. c #9F0707",
":. c #900708",
">. c #910708",
",. c #950708",
"<. c #920F0F",
"1. c #960E0F",
"2. c #970E0F",
"3. c #9C0D0E",
"4. c #9D0D0E",
"5. c #9E0D0E",
"6. c #9F0D0E",
"7. c #8B0F10",
"8. c #8D0F10",
"9. c #8E0F10",
"0. c #900F10",
"q. c #801112",
"w. c #821012",
"e. c #851011",
"r. c #861011",
"t. c #A00707",
"y. c #A20607",
"u. c #A20D0D",
"i. c #A00D0E",
"p. c #A70C0D",
"a. c #AB0B0C",
"s. c #A80C0D",
"d. c #B10606",
"f. c #B00B0B",
"g. c #B10B0B",
"h. c #B90A0A",
"j. c #C40405",
"k. c #FF2E2E",
/* pixels */
"$ $ : : : : : : : : : : : : $ $ $ $ $ $ : : : : : : : : : : : : ",
"$ $ : : : : : : : : : : : : $ $ $ $ $ $ : : : : : : : : : : : : ",
": : $ $ : : : : : : : : $ $ : : : : $ $ : : : : : : : : : : : : ",
": : $ $ : : : : : : : : $ $ : : : : $ $ : : : : : : : : : : : : ",
": : : : $ $ : : : > & = a f z g g z f a = & > : : : : : : : : : ",
": : : : $ $ : > , i o 2 m N P U U P N m 2 o i , > : : : : : : : ",
": : : : : : % * ; 1 M Y / !  .O.O. .! / Y M 1 ; p > : : : : : : ",
": : : : : > * . 4 t E X.q.9.2.4.4.2.9.q.X.E t 4 d p > : : : : : ",
": : : : : , ; 4 T ! %.1.a.k.k.k.k.k.k.a.1.%.! T 4 ; , : : : : : ",
": : : : : i # e Q q.i.k.k.< < c c c c k.k.i.q.Q e # i : : : : : ",
": : : : % ; 9 Z $.5.k.< < < < < < c c c c k.5.@.~ b - $ : : : : ",
": : : : & @ r G 0.k.< < < < < < < < < c c c k.8.! N o % : : : : ",
"$ $ $ $ = 4 V _ u.k.< < < < < < < < < c c c k.3.X.T # & $ $ $ $ ",
"$ $ $ $ - 7 A [ f.k.< < < < < < < < c c c c k.p.$.L 5 = $ $ $ $ ",
": : $ $ X q F =.k.c < < < < < < < c c c < k.k.g.e.E 8 - $ $ : : ",
": : $ $ O r J >.k.c c c c c < < < c c < k.k.k.k.9.! q . $ $ : : ",
": : : : + y K ,.k.c c c c c c c c c c < k.k.k.k.<.{ w X : : : : ",
": : : : O r H :.k.c c c c c c c c c c < k.k.k.k.9.! q . : : : : ",
": : : : X q W 7.k.< c c c c c c c c c c < k.k.a.' D m a : : : : ",
": : : : - 6 ~ @.5.k.< < c c c c c c < c c c k.1.( u l i : : : : ",
": : $ $ i h P Q &.5.k.k.k.k.k.k.k.< < k.k.k.y.' E M x , : : : : ",
": : $ $ , s v T Q @.7.1.6.s.d.j.k.c c k.k.h.=.K T k i > : : : : ",
"$ $ : : > p d v P ~ W | o.#.8.p.k.c c c k.t.#.^ n s , : : : : : ",
"$ $ : : : > p s h b N P Y ^ ..r.;.k.c c k.*.| I h p > : : : : : ",
": : : : : : > , i a f z j m R } w.5.k.k.-.` ~ n s > : : : : $ $ ",
": : : : : : : : : : : : , s v T Q +.[ ] ) S B h i : : : : : $ $ ",
": : : : : : : : : : : : > p d v P L A A C w 3 ; , : : : $ $ $ $ ",
": : : : : : : : : : : : : > p s h b 0 0 6 # ; * > : : : $ $ $ $ ",
": : : : : : : : : : : : : : > , i a     - = & % $ $ $ $ $ $ $ $ ",
": : : : : : : : : : : : : : : : : : $ $ $ $ $ $ $ $ $ $ $ $ $ $ ",
": : : : : : : : : : : : : : : : $ $ $ $ $ $ : : : : : : : : $ $ ",
": : : : : : : : : : : : : : : : $ $ $ $ $ $ : : : : : : : : $ $ "
};
