/* XPM */
static char *result[] = {
/* columns rows colors chars-per-pixel */
"32 32 135 2 ",
"   c #180E0F",
".  c #190E0F",
"X  c #1A0E0F",
"o  c #1B0E0F",
"O  c #1C0E0F",
"+  c #1D0E0F",
"@  c #1E0E0F",
"#  c #0F0F10",
"$  c #100F10",
"%  c #110F10",
"&  c #120F10",
"*  c #140F10",
"=  c #150F10",
"-  c #160F10",
";  c #170F10",
":  c #1D1D1F",
">  c #1E1D1F",
",  c #1F1D1F",
"<  c #2C0000",
"1  c #240E0F",
"2  c #270E0F",
"3  c #2A0D0E",
"4  c #2B0D0E",
"5  c #280E0E",
"6  c #2D0D0E",
"7  c #2E0D0E",
"8  c #330000",
"9  c #300D0E",
"0  c #340D0E",
"q  c #350D0E",
"w  c #370D0E",
"e  c #3A0C0D",
"r  c #211C1E",
"t  c #201D1F",
"y  c #221C1E",
"u  c #231C1E",
"i  c #241C1E",
"p  c #261C1E",
"a  c #271C1E",
"s  c #291B1D",
"d  c #2A1B1D",
"f  c #2B1B1D",
"g  c #2E1B1D",
"h  c #291C1D",
"j  c #281C1E",
"k  c #391915",
"l  c #301B1C",
"z  c #331A1C",
"x  c #351A1C",
"c  c #39191B",
"v  c #3A191B",
"b  c #381A1B",
"n  c #3C191B",
"m  c #400C0D",
"M  c #410C0D",
"N  c #450C0D",
"B  c #460C0D",
"V  c #470C0D",
"C  c #4D0B0C",
"Z  c #4E0B0C",
"A  c #4F0B0C",
"S  c #530B0C",
"D  c #570B0C",
"F  c #580B0B",
"G  c #5A0B0B",
"H  c #5B0B0B",
"J  c #5C0A0B",
"K  c #5F0A0B",
"L  c #4B1719",
"P  c #4C1719",
"I  c #40191A",
"U  c #43181A",
"Y  c #44181A",
"T  c #45181A",
"R  c #46181A",
"E  c #571617",
"W  c #581617",
"Q  c #591617",
"!  c #5D1517",
"~  c #5E1516",
"^  c #501718",
"/  c #511718",
"(  c #650A0B",
")  c #670A0B",
"_  c #6B0A0A",
"`  c #6F090A",
"'  c #7A0909",
"]  c #7C0909",
"[  c #7D0909",
"{  c #601516",
"}  c #621416",
"|  c #651415",
" . c #661415",
".. c #641416",
"X. c #6A1315",
"o. c #6E1314",
"O. c #6F1314",
"+. c #681415",
"@. c #691415",
"#. c #741213",
"$. c #771213",
"%. c #781213",
"&. c #7F1112",
"*. c #810809",
"=. c #840809",
"-. c #860809",
";. c #890808",
":. c #9F0707",
">. c #900708",
",. c #910708",
"<. c #940708",
"1. c #950708",
"2. c #950E0F",
"3. c #960E0F",
"4. c #970E0F",
"5. c #9B0D0E",
"6. c #9A0E0E",
"7. c #9D0D0E",
"8. c #9E0D0E",
"9. c #8B0F10",
"0. c #8D0F10",
"q. c #900F10",
"w. c #821012",
"e. c #841011",
"r. c #851011",
"t. c #881011",
"y. c #A40607",
"u. c #AB0606",
"i. c #A20D0D",
"p. c #A50C0D",
"a. c #A70C0D",
"s. c #A90C0C",
"d. c #B00B0B",
"f. c #C50809",
"g. c #FF2E2E",
/* pixels */
"# # : : : : : : : : : : : : # # # # # # : : : : : : : : : : : : ",
"# # : : : : : : : : : : : : # # # # # # : : : : : : : : : : : : ",
": : # # : : : : : : : : # # : : : : # # : : : : : : : : : : : : ",
": : # # : : : : : : : : # # : : : : # # : : : : : : : : : : : : ",
": : : : # # : : : : # # : : : : : : : : # # : : : : : : : : : : ",
": : : : # # : > , r - . h d d d d d d h . - r , > : : : : : : : ",
": : : : : : $ & ; @ z n I U Y Y Y Y U I n z @ ; t > : : : : : : ",
": : : : : > &   1 0 ^ ! | @.X.X.X.X.@.| ! ^ 0 1 p t > : : : : : ",
": : : : : , ; 1 T ~ $.9.3.7.8.8.8.8.7.3.9.$.~ T 1 ; , : : : : : ",
": : : : : r @ 0 ~ &.8.g.g.k k k k k k g.g.8.&.~ 0 @ r : : : : : ",
": : : : $ ; 5 V %.8.g.8 k k k k k k k k 8 g.8.%./ x ; $ : : : : ",
": : : : % + q G q.g.8 < k k k k k k k k < 8 g.q...I + % : : : : ",
"# # # # * 1 M _ i.g.8 < k k k k k k k k < 8 g.i.#.P 1 * # # # # ",
"# # # # - 3 C ] d.g.8 k k k k k k k k k k 8 g.d.e.E 3 - # # # # ",
": : # # . 9 D ;.g.8 k k k k k k k k k k k k 8 g.q.{ 9 . # # : : ",
": : # # o q J ,.g.k k k k k k k k k k k k k k g.4. .q o # # : : ",
": : : : O w K 1.g.k k k k k k k k k k k k k k g.5.+.w O : : : : ",
": : : : o q H >.g.k k k k k k k k k k k k k k g.3.| q o : : : : ",
": : : : . 9 ! 9.g.8 k k k k k k k k k k k k 8 g.=.S n a : : : : ",
": : : : - 2 ^ $.8.g.8 k k k k k k k k k k 8 g.8.` N z u : : : : ",
": : # # r f I ~ w.p.g.g.8 < k k k k < 8 g.g.:.' ~ I f r : : : : ",
": : # # , i l T } r.a.f.g.8 8 k k 8 8 g.f.a.[ F T l i , : : : : ",
"# # : : > t p l R | t.d.g.8 8 8 8 8 8 g.u.*.| R l p t > : : : : ",
"# # : : : > t i z P O.6.g.8 8 8 8 8 8 g.<.) P z i t > : : : : : ",
": : : : : : > , a v W w.s.g.g.g.g.g.g.y.' Z v a , > : : : : # # ",
": : : : : : : : r g R +.0.g.g.g.g.g.g.-.K e g r : : : : : : # # ",
": : : : : : : : , j b ^ o.r.2.7.7.2.[ ( B 4 X % : : : : # # # # ",
": : : : : : : : > r d c L Q ..@.@...A m 6 + * $ : : : : # # # # ",
": : : : : : : : : , y s z v I U U I 7 2 O = % # # # # # # # # # ",
": : : : : : : : : > , r u a h d d h . - * % $ # # # # # # # # # ",
": : : : : : : : : : : : : : : : # # # # # # : : : : : : : : # # ",
": : : : : : : : : : : : : : : : # # # # # # : : : : : : : : # # "
};
