/* XPM */
static char *result[] = {
/* columns rows colors chars-per-pixel */
"32 32 62 1 ",
"  c #18160F",
". c #1B180F",
"X c #1C190F",
"o c #1E1A0F",
"O c #1F1B0F",
"+ c #0F0F10",
"@ c #101010",
"# c #111010",
"$ c #121110",
"% c #131210",
"& c #141210",
"* c #151310",
"= c #171510",
"- c #1D1D1F",
"; c #1E1E1F",
": c #1F1E1F",
"> c #231E0F",
", c #201F1F",
"< c #27210E",
"1 c #29220E",
"2 c #2D250E",
"3 c #2F270E",
"4 c #30270E",
"5 c #33290E",
"6 c #352B0E",
"7 c #3C300D",
"8 c #21201E",
"9 c #21201F",
"0 c #22211E",
"q c #24221E",
"w c #26231E",
"e c #29251D",
"r c #29261D",
"t c #2A271D",
"y c #2B271D",
"u c #2C281D",
"i c #302A1D",
"p c #342E1C",
"a c #362F1C",
"s c #38311B",
"d c #39311B",
"f c #3B331B",
"g c #3C331B",
"h c #3F351B",
"j c #42340D",
"k c #43350D",
"l c #45370D",
"z c #40371A",
"x c #483C19",
"c c #4C3F19",
"v c #51400C",
"b c #4D4019",
"n c #4E4019",
"m c #5B4A17",
"M c #504118",
"N c #9B5300",
"B c #CB6501",
"V c #D88600",
"C c #FFAF34",
"Z c #FFC001",
"A c #FFE665",
"S c white",
/* pixels */
"++------------++++++------------",
"++---------;:,%&&%$#;-----------",
"--++------;,& ette &,;----------",
"--++-----;,qX>assa>Xq,;---------",
"----++--;,=ophxccxhpo=,;--------",
"----++--:8X<znVVBBnz<X8:--------",
"------++$ ihnmVVBBmnhi $--------",
"------++%.axVVZZZZNNxa.%--------",
"------++8ydbVVZZZZNNbdy8++------",
"------++0ufMVVAAAANNMfu0++------",
"----++++0ugMVVAAAANNMgu0--++----",
"----++++0ugMVVSSSSNNMgu0--++----",
"++++++++0ugMVVSSSSNNMgu0--++++++",
"++++++++0ugMVVSSSSNNMgu0--++++++",
"--++++++*OgMVVSSSSNNMgu0--++++--",
"--++++++*OgMVVAAAANNMgu0--++++--",
"----++++*O4lVVAAAANNMgu0--++----",
"----++++*O4lVVZZZZNNMgu0--++----",
"----++--0ugMVVZZZZNNMgu0++------",
"----++--0ugMBBCCCCNNMgu0++------",
"--++----0ugMBBCCCCNNMgO*--------",
"--++----0ugMBBVVVVNNMgO*--------",
"++------0ufMBBVVVVNNl3u0--------",
"++------8ydbBBVVVVNNj2y8--------",
"--------9eaxBBVVVVNN71e9------++",
"--------,wihnmNNNNvk5>w,------++",
"--------:8rpznNNNNk6<X&#----++++",
"--------;,qyphxccx5<o=$@----++++",
"---------;,qriassa>X=$@+++++++++",
"----------;,8wette &$@++++++++++",
"-----------;:,98&%$#@+--------++",
"----------------++++++--------++"
};
