/* XPM */
static char *result[] = {
/* columns rows colors chars-per-pixel */
"32 32 65 1 ",
"  c #18160F",
". c #1B180F",
"X c #1C190F",
"o c #1E1A0F",
"O c #1F1B0F",
"+ c #0F0F10",
"@ c #101010",
"# c #111010",
"$ c #121110",
"% c #131210",
"& c #141210",
"* c #151310",
"= c #171510",
"- c #1D1D1F",
"; c #1E1E1F",
": c #1F1E1F",
"> c #231E0F",
", c #201F1F",
"< c #27210E",
"1 c #29220E",
"2 c #2D250E",
"3 c #2F270E",
"4 c #30270E",
"5 c #33290E",
"6 c #362B0E",
"7 c #372D0D",
"8 c #372C0E",
"9 c #3C300D",
"0 c #21201E",
"q c #21201F",
"w c #22211E",
"e c #24221E",
"r c #26231E",
"t c #29251D",
"y c #29261D",
"u c #2B271D",
"i c #2C281D",
"p c #302A1D",
"a c #342E1C",
"s c #362F1C",
"d c #39311B",
"f c #3B331B",
"g c #3C331B",
"h c #3F351B",
"j c #42340D",
"k c #43350D",
"l c #45370D",
"z c #46370D",
"x c #41371A",
"c c #42381A",
"v c #43381A",
"b c #483C19",
"n c #52400C",
"m c #4D4019",
"M c #4E4019",
"N c #5C4A17",
"B c #5D4B17",
"V c #504118",
"C c #504218",
"Z c #9B5300",
"A c #CB6501",
"S c #D88600",
"D c #FFC001",
"F c #FFE665",
"G c white",
/* pixels */
"++------------++++++------------",
"++------;:,q0w*****&q,:;--------",
"--++---;,0rtoOiiiiOotr0,;-------",
"--++--;,eyps23gggg32spye,;------",
"----+@,eua59mVVVVVVm95aue,;-----",
"----@$eusxkZZZZAAAAAAkxsue,;----",
"---;,eo17zNZZZZAAAAAANz7sue,;---",
"--;,eu18zZZDDDDDDDDDDSSzcsue,;--",
"-;,eus7zBZZDDDDDDDDDDSSBz7sue,;-",
"-:0yaxzZZDDFFFFFFFFFFDDSSzxay0:-",
"-,rp5knZZDDFFFFFFFFFFDDSSNk5pr,-",
"-qts9ZZDDFFFFFFFFFFFFGGDDSS9stq-",
"+&o2jZZDDFFFFFFFFFFFFGGDDSSj2o&+",
"+*O3lZZDDFFFFFFFFFFGGGGDDSSl3O*+",
"-wO4lZZDDFFFFFFFFFFGGGGDDSSl4Ow-",
"-wO4lZZDDFFFFFFFFGGGGFFDDSSl4Ow-",
"-wiglZZDDFFFFFFFFGGGGFFDDSSlgiw-",
"-wiglZZDDFFFFFFGGGGFFFFDDSSlgiw-",
"-wiflZZDDFFFFFFGGGGFFFFDDSSVfiw-",
"-0udjZZDDFFFFGGGGFFFFFFDDSSmdu0-",
"-q.1bZZDDFFFFGGGGFFFFFFDDSSbstq-",
"-, >hMNZZDDGGGGFFFFFFDDSSNMhpr,-",
"+#0yaxCZZDDGGGGFFFFFFDDSSCxay0:-",
"+@,eusvCBZZDDDDDDDDDDSSBCvsue,;-",
"--;,euscCZZDDDDDDDDDDSSCcsue,;++",
"---;,eusvCNZZZZAAAAAAnCvsue,;-++",
"----;,eusxMZZZZAAAAAAk61ue,;++++",
"-----;,euahbmVVVVVlj95<oe,;-++++",
"------;,eypsdfgggg321>X=$@++++++",
"-------;,0rtuiiiiiOo. &$@+++++++",
"--------;:,q0www***&%$:;------++",
"----------------++++++--------++"
};
