/* XPM */
static char *result[] = {
/* columns rows colors chars-per-pixel */
"32 32 72 1 ",
"  c #18160F",
". c #1B180F",
"X c #1C190F",
"o c #1D190F",
"O c #1E1A0F",
"+ c #1F1B0F",
"@ c #0F0F10",
"# c #101010",
"$ c #111010",
"% c #121110",
"& c #131210",
"* c #141210",
"= c #151310",
"- c #171510",
"; c #1D1D1F",
": c #1E1E1F",
"> c #1F1E1F",
", c #231E0F",
"< c #241E0F",
"1 c #201F1F",
"2 c #27210E",
"3 c #29220E",
"4 c #2B240E",
"5 c #2D250E",
"6 c #2F270E",
"7 c #30270E",
"8 c #33290E",
"9 c #352B0E",
"0 c #3C300D",
"q c #3D310D",
"w c #21201E",
"e c #21201F",
"r c #22211E",
"t c #24221E",
"y c #26231E",
"u c #29251D",
"i c #29261D",
"p c #2A271D",
"a c #2B271D",
"s c #2C281D",
"d c #302B1C",
"f c #302A1D",
"g c #342E1C",
"h c #362F1C",
"j c #38301B",
"k c #39311B",
"l c #3B331B",
"z c #3C331B",
"x c #3F351B",
"c c #42340D",
"v c #43350D",
"b c #45370D",
"n c #46370D",
"m c #40361A",
"M c #40371A",
"N c #483C19",
"B c #51400C",
"V c #55420C",
"C c #4D4019",
"Z c #4E4019",
"A c #584817",
"S c #5B4A17",
"D c #5F4C16",
"F c #504118",
"G c #504218",
"H c #9B5300",
"J c #CB6501",
"K c #D88600",
"L c #FFAF34",
"P c #FFC001",
"I c #FFE665",
"U c white",
/* pixels */
"@@;;;;;;;;;;;;@@@@@@;;;;;;;;;;;;",
"@@;;;;;;;:>1ew====*&1>:;;;;;;;;;",
";;@@;;;;:1wy.OssssO.yw1:;;;;;;;;",
";;@@;;;:1tif35lzzl53fit1:;;;;;;;",
";;;;@@:1ta28NCFFFFCN82at1:;;;;;;",
";;;;@@>wig9vHHHHKKKKv9giw>;;;;;;",
";;;;;;% ,8ZSHHHHKKKKSZ8,y1;;;;;;",
";;;;;:*o4qHHKKHHUUUUKKq4pw:;;;;;",
";;;;:1 <mGHHKKHHUUUUKKGm< 1:;;;;",
";;;;>wo4NAHHKKHHUUUUKKAN4ow>;;;;",
";;;;% <9GDHHKKHHUUUUKKDGMd %;;;;",
";;;;&.30HHKKHHUUUUIIPPKKNh.&;;;;",
"@@@@*O5cHHKKHHUUUUIIPPKKCkO*@@@@",
"@@@@=+6bHHLLHHUUUUIIPPKKFl+=@@@@",
";;@@=+7bHHLLHHUUUUIIPPKKFz+=@@;;",
";;@@=+7bHHLLHHUUIIIIPPKKFz+=@@;;",
";;;;=+7bHHLLHHUUIIIIPPKKFz+=;;;;",
";;;;=+7bHHLLHHUUIIIIPPKKFz+=;;;;",
";;;;=+lFHHLLHHUUIIIIPPKKb6sr;;;;",
";;;;*OkCHHLLHHUUIIIIPPKKc5aw;;;;",
";;@@euhNHHLLHHUUIIIIPPKKNhue;;;;",
";;@@1ydMGDJJLLJJIIPPKKVnMdy1;;;;",
"@@;;>wpjNAJJLLJJIIPPKKANjpw>;;;;",
"@@;;:1ydmGJJLLJJPPPPKKGmdy1:;;;;",
";;;;;:wpjNJJLLJJPPPPKKNjpw:;;;@@",
";;;;;;1yfxZSJJJJJJKKBvxfy1;;;;@@",
";;;;;;>wigMZJJJJJJKKv92Xw>;;@@@@",
";;;;;;:1tagxNCFFFFc082O-1:;;@@@@",
";;;;;;;:1tifhklzzl53,X-%#@@@@@@@",
";;;;;;;;:1wyuassssO. *%#@@@@@@@@",
";;;;;;;;;:>1ewrr==*&%$:;;;;;;;@@",
";;;;;;;;;;;;;;;;@@@@@@;;;;;;;;@@"
};
