/* XPM */
static char *_88ea693f60c4563b965ddaaa33fd7f1[] = {
/* columns rows colors chars-per-pixel */
"32 32 97 2 ",
"   c #170F0F",
".  c #180E0F",
"X  c #190E0F",
"o  c #1A0E0F",
"O  c #1B0E0F",
"+  c #1C0E0F",
"@  c #1D0E0F",
"#  c #1E0E0F",
"$  c #1F0E0F",
"%  c #0F0F10",
"&  c #100F10",
"*  c #110F10",
"=  c #120F10",
"-  c #130F10",
";  c #140F10",
":  c #150F10",
">  c #160F10",
",  c #170F10",
"<  c #1D1D1F",
"1  c #1E1D1F",
"2  c #1F1D1F",
"3  c #200E0F",
"4  c #210E0F",
"5  c #230E0F",
"6  c #250E0F",
"7  c #270E0E",
"8  c #2A0D0E",
"9  c #2B0D0E",
"0  c #280E0E",
"q  c #2D0D0E",
"w  c #2F0D0E",
"e  c #3C0000",
"r  c #340D0E",
"t  c #350D0E",
"y  c #360D0E",
"u  c #3A0C0D",
"i  c #3D0C0D",
"p  c #211C1E",
"a  c #201D1F",
"s  c #211D1F",
"d  c #221C1E",
"f  c #231C1E",
"g  c #251C1E",
"h  c #261C1E",
"j  c #271C1E",
"k  c #291B1D",
"l  c #2A1B1D",
"z  c #2B1B1D",
"x  c #2C1B1D",
"c  c #2D1B1D",
"v  c #2F1B1D",
"b  c #291C1D",
"n  c #281C1E",
"m  c #311A1C",
"M  c #301B1C",
"N  c #301B1D",
"B  c #331A1C",
"V  c #341A1C",
"C  c #351A1C",
"Z  c #361A1C",
"A  c #371A1C",
"S  c #39191B",
"D  c #3B191B",
"F  c #381A1B",
"G  c #3C191B",
"H  c #400C0D",
"J  c #420C0D",
"K  c #430C0D",
"L  c #440C0D",
"P  c #4A1719",
"I  c #4B1719",
"U  c #4C1719",
"Y  c #4D1719",
"T  c #4F1718",
"R  c #4E1719",
"E  c #41181A",
"W  c #40191A",
"Q  c #43181A",
"!  c #471819",
"~  c #44181A",
"^  c #45181A",
"/  c #46181A",
"(  c #481819",
")  c #491819",
"_  c #571617",
"`  c #5A1517",
"'  c #581617",
"]  c #591617",
"[  c #501718",
"{  c #511718",
"}  c #521618",
"|  c #531618",
" . c #551618",
".. c #631416",
"X. c #DC0000",
"o. c #ED0000",
"O. c #FF4F3F",
/* pixels */
"% % < < < < < < < < < < < < % % % % % % < < < < < < < < < < < < ",
"% % < < < < < < < < < < < < % % % % % % < < < < < < < < < < < < ",
"< < % % < < < < < < < < % % < < < < % % < < < < < < < < < < < < ",
"< < % % < < < < < < < < & & d d d d & & < < < < < < < < < < < < ",
"< < < < % % < < < < , , j k k x x k k j , , < < < < < < < < < < ",
"< < < < % % < < d d O 4 B F F F F F F B 4 O d d < < < < < < < < ",
"< < < < < < & &   # V G ~ P R [ [ R P ~ G V #   d < < < < < < < ",
"< < < < < < &   4 9 Q R  .e e e e e e  .R Q 9 4 j d < < < < < < ",
"< < < < < < , # V ~ [ e e O.O.O.O.O.O.e e [ ~ V # , < < < < < < ",
"< < < < < d O 7 Q [ e O.O.O.O.O.O.O.O.O.X.e [ Q 7 O d < < < < < ",
"< < < < & , # q P e o.O.O.O.O.O.O.O.O.O.o.X.e P F k , & < < < < ",
"< < < < &   4 r [ e o.O.O.o.o.O.O.O.O.O.o.X.e [ Q B   & < < < < ",
"% % % % & O 7 u _ e O.O.o.O.O.o.O.O.O.O.O.X.e _ ~ V O & % % % % ",
"% % % % & # 9 K e e e e O.O.O.O.e e e O.O.O.X.e P F # & % % % % ",
"< < % % , # q K e e e e e O.O.e e e e e O.O.O.e R F # , % % < < ",
"< < % % , # q L e e e e e O.O.e e e e e O.O.O.e R F # , % % < < ",
"< < < < , # q K e e e e e O.O.e e e e e O.O.O.e R F # , < < < < ",
"< < < < & # 9 i e e e e O.O.O.O.e e e O.O.O.X.e ( V # & < < < < ",
"< < < < & O B Q [ e X.O.O.O.O.O.O.O.O.O.O.X.e [ r 7 j d < < < < ",
"< < < < & , k F ( ] e o.O.e e O.o.X.e e e e [ ~ 9 # d < < < < < ",
"< < % % < d j B Q [ e X.X.e e X.X.e ..] [ P r 9 x j d < < < < < ",
"< < % % < < d k F ( ] e o.O.O.o.O.e ] R Q F 7 # j d < < < < < < ",
"% % < < < < < j B Q [ e o.O.O.o.O.e K r 7 # j d d < < < < < < < ",
"% % < < < < < d k F ~ e e e e e e K r 7 # , d < < < < < < < < < ",
"< < < < < < < d j B F ~ R [ [ R ( Q 9 # , & < < < < < < < < % % ",
"< < < < < < < < d n x V F F F F V B # , & & < < < < < < < < % % ",
"< < < < < < < < d d j n k x x k k j , & & % % % < < < < % % % % ",
"< < < < < < < < < < d d d d d d d d & & % % % % < < < < % % % % ",
"< < < < < < < < < < < < < < < < < < % % % % % % % % % % % % % % ",
"< < < < < < < < < < < < < < < < < < % % % % % % % % % % % % % % ",
"< < < < < < < < < < < < < < < < % % % % % % < < < < < < < < % % ",
"< < < < < < < < < < < < < < < < % % % % % % < < < < < < < < % % "
};
