/* XPM */
static char *result[] = {
/* columns rows colors chars-per-pixel */
"32 32 89 1 ",
"  c #170F0F",
". c #180E0F",
"X c #190E0F",
"o c #1A0E0F",
"O c #1B0E0F",
"+ c #1C0E0F",
"@ c #1E0E0F",
"# c #1F0E0F",
"$ c #0F0F10",
"% c #100F10",
"& c #110F10",
"* c #120F10",
"= c #130F10",
"- c #140F10",
"; c #150F10",
": c #1D1D1F",
"> c #1E1D1F",
", c #1F1D1F",
"< c #200E0F",
"1 c #230E0F",
"2 c #250E0F",
"3 c #270E0E",
"4 c #2A0D0E",
"5 c #2B0D0E",
"6 c #280E0E",
"7 c #2C0D0E",
"8 c #2D0D0E",
"9 c #2F0D0E",
"0 c #3C0000",
"q c #310D0E",
"w c #320D0E",
"e c #340D0E",
"r c #350D0E",
"t c #390D0D",
"y c #3A0C0D",
"u c #3B0C0D",
"i c #3D0C0D",
"p c #3E0C0D",
"a c #211C1E",
"s c #201D1F",
"d c #211D1F",
"f c #221C1E",
"g c #241C1E",
"h c #251C1E",
"j c #261C1E",
"k c #2B1B1D",
"l c #2C1B1D",
"z c #2D1B1D",
"x c #291C1D",
"c c #281C1E",
"v c #311A1C",
"b c #301B1D",
"n c #341A1C",
"m c #351A1C",
"M c #371A1C",
"N c #39191B",
"B c #3B191B",
"V c #381A1B",
"C c #3C191B",
"Z c #3D191B",
"A c #3E191B",
"S c #400C0D",
"D c #420C0D",
"F c #430C0D",
"G c #440C0D",
"H c #4A0C0C",
"J c #4B1719",
"K c #4C1719",
"L c #4D1719",
"P c #4F1718",
"I c #4E1719",
"U c #41181A",
"Y c #40191A",
"T c #471819",
"R c #44181A",
"E c #45181A",
"W c #46181A",
"Q c #481819",
"! c #491819",
"~ c #571617",
"^ c #5F1516",
"/ c #501718",
"( c #521618",
") c #531618",
"_ c #541618",
"` c #551618",
"' c #DC0000",
"] c #ED0000",
"[ c #FF4F3F",
/* pixels */
"$$::::::::::::$$$$$$::::::::::::",
"$$::::::::::::$$$$$$::::::::::::",
"::$$::::::::$$::::$$::::::::::::",
"::$$::::::::$$::::$$::::::::::::",
"::::$$::>,*=affffffa=*,>::::::::",
"::::$$:>sf.+kllllllk+.fs>:::::::",
"::::::%= @vMNBCCCCBNMv@ d>::::::",
":::::>* <4YQL//////LQY4<hs>:::::",
":::::,;@MR/00[[[[[[00/RM@;,:::::",
":::::sX2U/0'[[[[[[[['0/U2Xs:::::",
"::::%;@8J0'][[[[[[[[]'0JNk;%::::",
"::::& 1e(0'][[[[[[[[]'0(Yb &::::",
"$$$$*o3y~0'[[[[[[[[[['0~Wno*$$$$",
"$$$$=+5S0'[[[[[[[[[[[['0JV+=$$$$",
"::$$-@8F0[[[[[[[[[[[[[[0IN@-$$::",
"::$$-#9G0[[[[[[[[[[[[[[0PB#-$$::",
"::::-@8D0[[[[[[[[[[[[[[0LN@-::::",
"::::=+4i0'[[[[[[[[[[[['0QM+=::::",
"::::*.vY/0'[[[[[[[[[['0/r2js::::",
"::::&;kME)00'][[[[]'00)E4@f,::::",
"::$$>shzVT_^0''[[''0^_u7zhs>::::",
"::$$:>dhzNQ~0''''''0~Q8<hd>:::::",
"$$::::>sjbAP0''''''0Gwbjs>::::::",
"$$:::::>dxmE`000000Ht6xd>:::::::",
"::::::::,gzB!000000p9<g,::::::$$",
"::::::::>acvZTK//Kuq2oa>::::::$$",
":::::::::,fxbmNBBN61O;&$::::$$$$",
":::::::::>sajxkllkO.-*%$::::$$$$",
"::::::::::>,sdaffa=*&%$$$$$$$$$$",
"::::::::::::::::::$$$$$$$$$$$$$$",
"::::::::::::::::$$$$$$::::::::$$",
"::::::::::::::::$$$$$$::::::::$$"
};
