/* XPM */
static char *result[] = {
/* columns rows colors chars-per-pixel */
"32 32 98 2 ",
"   c #170F0F",
".  c #180E0F",
"X  c #190E0F",
"o  c #1A0E0F",
"O  c #1B0E0F",
"+  c #1C0E0F",
"@  c #1E0E0F",
"#  c #1F0E0F",
"$  c #0F0F10",
"%  c #100F10",
"&  c #110F10",
"*  c #120F10",
"=  c #130F10",
"-  c #140F10",
";  c #150F10",
":  c #170F10",
">  c #1D1D1F",
",  c #1E1D1F",
"<  c #1F1D1F",
"1  c #200E0F",
"2  c #210E0F",
"3  c #220E0F",
"4  c #230E0F",
"5  c #250E0F",
"6  c #270E0E",
"7  c #2A0D0E",
"8  c #2B0D0E",
"9  c #280E0E",
"0  c #2C0D0E",
"q  c #2D0D0E",
"w  c #2F0D0E",
"e  c #3C0000",
"r  c #340D0E",
"t  c #360D0E",
"y  c #390D0D",
"u  c #3A0C0D",
"i  c #3B0C0D",
"p  c #3D0C0D",
"a  c #211C1E",
"s  c #201D1F",
"d  c #211D1F",
"f  c #221C1E",
"g  c #231C1E",
"h  c #241C1E",
"j  c #251C1E",
"k  c #261C1E",
"l  c #271C1E",
"z  c #291B1D",
"x  c #2A1B1D",
"c  c #2B1B1D",
"v  c #2C1B1D",
"b  c #2D1B1D",
"n  c #281C1E",
"m  c #311A1C",
"M  c #301B1C",
"N  c #301B1D",
"B  c #331A1C",
"V  c #341A1C",
"C  c #351A1C",
"Z  c #361A1C",
"A  c #371A1C",
"S  c #39191B",
"D  c #3B191B",
"F  c #381A1B",
"G  c #3C191B",
"H  c #400C0D",
"J  c #410C0D",
"K  c #420C0D",
"L  c #430C0D",
"P  c #440C0D",
"I  c #450C0D",
"U  c #460C0D",
"Y  c #4A1719",
"T  c #4B1719",
"R  c #4C1719",
"E  c #4D1719",
"W  c #4F1718",
"Q  c #4E1719",
"!  c #41181A",
"~  c #40191A",
"^  c #43181A",
"/  c #44181A",
"(  c #46181A",
")  c #481819",
"_  c #491819",
"`  c #571617",
"'  c #5A1517",
"]  c #581617",
"[  c #591617",
"{  c #501718",
"}  c #511718",
"|  c #521618",
" . c #531618",
".. c #551618",
"X. c #631416",
"o. c #DC0000",
"O. c #ED0000",
"+. c #FF4F3F",
/* pixels */
"$ $ > > > > > > > > > > > > $ $ $ $ $ $ > > > > > > > > > > > > ",
"$ $ > > > > > > > > > > > > $ $ $ $ $ $ > > > > > > > > > > > > ",
"> > $ $ > > > > > > > > $ $ > > > > $ $ > > > > > > > > > > > > ",
"> > $ $ > > > > > > , < * = a f f a = * < , > > > > > > > > > > ",
"> > > > $ $ > > , < - : l z c v v c z l : - < , > > > > > > > > ",
"> > > > $ $ > , s g O 2 B F S D D S F B 2 O g s , > > > > > > > ",
"> > > > > > % =   @ V G / Y Q { { Q Y / G V @   d , > > > > > > ",
"> > > > > , *   1 8 ^ E ..e e e e e e ..E ^ 8 1 j s , > > > > > ",
"> > > > > < ; @ A / } e e +.+.+.+.+.+.e e } / A @ ; < > > > > > ",
"> > > > > s X 5 ! { e o.+.+.+.+.+.+.+.+.+.e { ! 5 X s > > > > > ",
"> > > > % ; @ q T e o.O.+.+.+.+.+.+.+.+.+.O.e T S c ; % > > > > ",
"> > > > &   4 r | e o.O.+.+.+.+.+.O.O.+.+.O.e | ~ N   & > > > > ",
"$ $ $ $ * o 6 u ` e o.+.+.+.+.+.O.+.+.O.+.+.e ` ( V o * $ $ $ $ ",
"$ $ $ $ = + 8 H e o.+.+.+.e e e +.+.+.+.e e e e T F + = $ $ $ $ ",
"> > $ $ - @ q L e +.+.+.e e e e e +.+.e e e e e Q S @ - $ $ > > ",
"> > $ $ - # w P e +.+.+.e e e e e +.+.e e e e e W D # - $ $ > > ",
"> > > > - @ q K e +.+.+.e e e e e +.+.e e e e e E S @ - > > > > ",
"> > > > = + 7 p e o.+.+.+.e e e +.+.+.+.e e e e ) A + = > > > > ",
"> > > > * . m ~ { e o.+.+.+.+.+.+.+.+.+.+.o.e | t 5 k s > > > > ",
"> > > > & ; c A / { e e e e o.O.+.e e +.O.e ] _ q @ f < > > > > ",
"> > $ $ , s j b A ~ Y  .' X.e o.o.e e o.o.e U r M k s , > > > > ",
"> > $ $ > , d j c m F ! R ] e +.O.+.+.O.e [ p 8 x a , > > > > > ",
"$ $ > > > > , s f k v V ~ Q e +.O.+.+.O.e U ~ M j < > > > > > > ",
"$ $ > > > > > , < s g z V ! Q e e e e e e i F c f , > > > > > > ",
"> > > > > > > > > > < f x C ~ ) E { I J y w N k s > > > > > $ $ ",
"> > > > > > > > > > , s h x M Z S D w 0 9 3 n a < > > > > > $ $ ",
"> > > > > > > > > > > , s f k z c v # @ O . - * , > > > $ $ $ $ ",
"> > > > > > > > > > > > , < s d a f ; - = * & % > > > > $ $ $ $ ",
"> > > > > > > > > > > > > > > > > > $ $ $ $ $ $ $ $ $ $ $ $ $ $ ",
"> > > > > > > > > > > > > > > > > > $ $ $ $ $ $ $ $ $ $ $ $ $ $ ",
"> > > > > > > > > > > > > > > > $ $ $ $ $ $ > > > > > > > > $ $ ",
"> > > > > > > > > > > > > > > > $ $ $ $ $ $ > > > > > > > > $ $ "
};
