/* XPM */
static char *result[] = {
/* columns rows colors chars-per-pixel */
"32 32 100 2 ",
"   c #170F0F",
".  c #180E0F",
"X  c #190E0F",
"o  c #1A0E0F",
"O  c #1B0E0F",
"+  c #1C0E0F",
"@  c #1D0E0F",
"#  c #1E0E0F",
"$  c #1F0E0F",
"%  c #0F0F10",
"&  c #100F10",
"*  c #110F10",
"=  c #120F10",
"-  c #130F10",
";  c #140F10",
":  c #150F10",
">  c #170F10",
",  c #1D1D1F",
"<  c #1E1D1F",
"1  c #1F1D1F",
"2  c #200E0F",
"3  c #210E0F",
"4  c #230E0F",
"5  c #240E0F",
"6  c #250E0F",
"7  c #270E0E",
"8  c #260E0F",
"9  c #290D0E",
"0  c #2A0D0E",
"q  c #2B0D0E",
"w  c #280E0E",
"e  c #2C0D0E",
"r  c #2D0D0E",
"t  c #2F0D0E",
"y  c #3C0000",
"u  c #300D0E",
"i  c #340D0E",
"p  c #350D0E",
"a  c #3A0C0D",
"s  c #3B0C0D",
"d  c #3C0C0D",
"f  c #3D0C0D",
"g  c #211C1E",
"h  c #201D1F",
"j  c #211D1F",
"k  c #221C1E",
"l  c #231C1E",
"z  c #241C1E",
"x  c #251C1E",
"c  c #261C1E",
"v  c #271C1E",
"b  c #291B1D",
"n  c #2A1B1D",
"m  c #2B1B1D",
"M  c #2C1B1D",
"N  c #2D1B1D",
"B  c #281C1E",
"V  c #311A1C",
"C  c #301B1C",
"Z  c #301B1D",
"A  c #321A1C",
"S  c #331A1C",
"D  c #341A1C",
"F  c #351A1C",
"G  c #361A1C",
"H  c #371A1C",
"J  c #39191B",
"K  c #3B191B",
"L  c #381A1B",
"P  c #3C191B",
"I  c #400C0D",
"U  c #410C0D",
"Y  c #420C0D",
"T  c #430C0D",
"R  c #440C0D",
"E  c #4A1719",
"W  c #4B1719",
"Q  c #4C1719",
"!  c #4D1719",
"~  c #4F1718",
"^  c #4E1719",
"/  c #41181A",
"(  c #40191A",
")  c #43181A",
"_  c #471819",
"`  c #44181A",
"'  c #45181A",
"]  c #46181A",
"[  c #481819",
"{  c #571617",
"}  c #5F1516",
"|  c #501718",
" . c #511718",
".. c #521618",
"X. c #531618",
"o. c #541618",
"O. c #551618",
"+. c #DC0000",
"@. c #ED0000",
"#. c #FF4F3F",
/* pixels */
"% % , , , , , , , , , , , , % % % % % % , , , , , , , , , , , , ",
"% % , , , , , , , , , , , , % % % % % % , , , , , , , , , , , , ",
", , % % , , , , , , , , % % , , , , % % , , , , , , , , , , , , ",
", , % % , , , , , , < 1 = - g k k g - = 1 < , , , , , , , , , , ",
", , , , % % , , < 1 ; > v b m M M m b v > ; 1 < , , , , , , , , ",
", , , , % % , < h l O 3 S L J K K J L S 3 O l h < , , , , , , , ",
", , , , , , & -   # D P ` E ^ | | ^ E ` P D #   j < , , , , , , ",
", , , , , < =   2 q ) ! O.y y y y y y O.! ) q 2 x h < , , , , , ",
", , , , , 1 : # H `  .y y #.#.#.#.#.#.y y  .` H # : 1 , , , , , ",
", , , , , h X 6 / | y +.#.#.#.#.#.#.#.#.+.y | / 6 X h , , , , , ",
", , , , & : # r W y +.@.#.#.#.#.#.#.#.#.@.+.y W J m : & , , , , ",
", , , , *   4 i ..y +.@.#.#.#.@.@.#.#.#.@.+.y ..( Z   * , , , , ",
"% % % % = o 7 a { y +.#.#.#.@.#.#.@.#.#.#.+.y { ] D o = % % % % ",
"% % % % - + q I y +.#.y y y #.#.#.#.y y y #.+.y W L + - % % % % ",
", , % % ; # r T y #.y y y y y #.#.y y y y y #.y ^ J # ; % % , , ",
", , % % ; $ t R y #.y y y y y #.#.y y y y y #.y ~ K $ ; % % , , ",
", , , , ; # r Y y #.y y y y y #.#.y y y y y #.y ! J # ; , , , , ",
", , , , - + 0 f y +.#.y y y #.#.#.#.y y y #.+.y [ H + - , , , , ",
", , , , = . V ( | y +.#.#.#.#.#.#.#.#.#.#.+.y | p 6 c h , , , , ",
", , , , * : m H ' X.y y +.@.#.y y #.@.+.y y X.' 0 # k 1 , , , , ",
", , % % < h x N L _ o.} y +.+.y y +.+.y } o.s e N x h < , , , , ",
", , % % , < j x N J [ { y #.@.#.#.@.#.y { [ r 2 x j < , , , , , ",
"% % , , , , < h c Z P Q y #.@.#.#.@.#.y U u Z c h < , , , , , , ",
"% % , , , , , < j B A ( ^ y y y y y y T p 8 B j < , , , , , , , ",
", , , , , , , , 1 k n F ( [ ! | | ! d i w @ k 1 , , , , , , % % ",
", , , , , , , , < h z n C G J K K J 9 5 @ > h < , , , , , , % % ",
", , , , , , , , , < h k c b m M M m + . : = & % , , , , % % % % ",
", , , , , , , , , , < 1 h j g k k g - = * & % % , , , , % % % % ",
", , , , , , , , , , , , , , , , , , % % % % % % % % % % % % % % ",
", , , , , , , , , , , , , , , , , , % % % % % % % % % % % % % % ",
", , , , , , , , , , , , , , , , % % % % % % , , , , , , , , % % ",
", , , , , , , , , , , , , , , , % % % % % % , , , , , , , , % % "
};
