/* XPM */
static char *result[] = {
/* columns rows colors chars-per-pixel */
"32 32 96 2 ",
"   c #170F0F",
".  c #180E0F",
"X  c #190E0F",
"o  c #1A0E0F",
"O  c #1B0E0F",
"+  c #1C0E0F",
"@  c #1E0E0F",
"#  c #1F0E0F",
"$  c #0F0F10",
"%  c #100F10",
"&  c #110F10",
"*  c #120F10",
"=  c #130F10",
"-  c #140F10",
";  c #150F10",
":  c #170F10",
">  c #1D1D1F",
",  c #1E1D1F",
"<  c #1F1D1F",
"1  c #200E0F",
"2  c #210E0F",
"3  c #220E0F",
"4  c #230E0F",
"5  c #250E0F",
"6  c #270E0E",
"7  c #2A0D0E",
"8  c #2B0D0E",
"9  c #280E0E",
"0  c #2C0D0E",
"q  c #2D0D0E",
"w  c #2F0D0E",
"e  c #3C0000",
"r  c #340D0E",
"t  c #360D0E",
"y  c #390D0D",
"u  c #3A0C0D",
"i  c #3B0C0D",
"p  c #3D0C0D",
"a  c #211C1E",
"s  c #201D1F",
"d  c #211D1F",
"f  c #221C1E",
"g  c #231C1E",
"h  c #251C1E",
"j  c #261C1E",
"k  c #271C1E",
"l  c #291B1D",
"z  c #2A1B1D",
"x  c #2B1B1D",
"c  c #2C1B1D",
"v  c #2D1B1D",
"b  c #281C1E",
"n  c #311A1C",
"m  c #301B1C",
"M  c #301B1D",
"N  c #331A1C",
"B  c #341A1C",
"V  c #371A1C",
"C  c #39191B",
"Z  c #3B191B",
"A  c #381A1B",
"S  c #3C191B",
"D  c #3D191B",
"F  c #400C0D",
"G  c #410C0D",
"H  c #420C0D",
"J  c #430C0D",
"K  c #440C0D",
"L  c #460C0D",
"P  c #4A1719",
"I  c #4B1719",
"U  c #4C1719",
"Y  c #4D1719",
"T  c #4F1718",
"R  c #4E1719",
"E  c #41181A",
"W  c #40191A",
"Q  c #42181A",
"!  c #43181A",
"~  c #44181A",
"^  c #46181A",
"/  c #481819",
"(  c #491819",
")  c #571617",
"_  c #5B1517",
"`  c #581617",
"'  c #591617",
"]  c #501718",
"[  c #511718",
"{  c #521618",
"}  c #531618",
"|  c #541618",
" . c #551618",
".. c #DC0000",
"X. c #ED0000",
"o. c #FF4F3F",
/* pixels */
"$ $ > > > > > > > > > > > > $ $ $ $ $ $ > > > > > > > > > > > > ",
"$ $ > > > > > > > > > > > > $ $ $ $ $ $ > > > > > > > > > > > > ",
"> > $ $ > > > > > > > > $ $ > > > > $ $ > > > > > > > > > > > > ",
"> > $ $ > > > > > > , < * = a f f a = * < , > > > > > > > > > > ",
"> > > > $ $ > > , < - : k l x c c x l k : - < , > > > > > > > > ",
"> > > > $ $ > , s g O 2 N A C Z Z C A N 2 O g s , > > > > > > > ",
"> > > > > > % =   @ B S ~ P R ] ] R P ~ S B @   d , > > > > > > ",
"> > > > > , *   1 8 ! Y  .e e e e e e  .Y ! 8 1 h s , > > > > > ",
"> > > > > < ; @ V ~ [ e e o.o.o.o.o.o.e e [ ~ V @ ; < > > > > > ",
"> > > > > s X 5 E ] e ..o.o.o.o.o.o.o.o.o.e ] E 5 X s > > > > > ",
"> > > > % ; @ q I e ..X.o.o.o.o.o.o.o.o.o.X.e I C x ; % > > > > ",
"> > > > &   4 r { e ..X.o.o.o.o.o.o.o.o.o.X.e { W M   & > > > > ",
"$ $ $ $ * o 6 u ) e ..o.o.o.o.o.o.o.o.o.o.o.e ) ^ B o * $ $ $ $ ",
"$ $ $ $ = + 8 F e ..o.o.o.o.o.o.o.o.o.o.o.o.o.e I A + = $ $ $ $ ",
"> > $ $ - @ q J e o.o.o.o.o.o.o.o.o.o.o.o.o.o.e R C @ - $ $ > > ",
"> > $ $ - # w K e o.o.o.o.o.o.o.o.o.o.o.o.o.o.e T Z # - $ $ > > ",
"> > > > - @ q H e o.o.o.o.o.o.o.o.o.o.o.o.o.o.e Y C @ - > > > > ",
"> > > > = + 7 p e ..o.o.o.o.o.o.o.o.o.o.o.o.e e / V + = > > > > ",
"> > > > * . n W ] e ..o.o.o.o.o.o.o.o.o.o...e { t 5 j s > > > > ",
"> > > > & ; x V ~ ] e e e e e e e o.o.o.X.e ` ( q @ f < > > > > ",
"> > $ $ , s h v V E I } _ e ......e o.....e L r m j s , > > > > ",
"> > $ $ > , d h x n C Q U ) e ......e X.e ' p 8 z a , > > > > > ",
"$ $ > > > > , s f k c N D / | e ....e X.e L W m h < > > > > > > ",
"$ $ > > > > > , < s f b M C ^ ] e e e e e i A x f , > > > > > > ",
"> > > > > > > > > > , d j v A W / Y K G y w M j s > > > > > $ $ ",
"> > > > > > > > > > > , d h x n V C w 0 9 3 b a < > > > > > $ $ ",
"> > > > > > > > > > > > , s f j l x # @ O . - * , > > > $ $ $ $ ",
"> > > > > > > > > > > > > , < s d a - - = * & % > > > > $ $ $ $ ",
"> > > > > > > > > > > > > > > > > > $ $ $ $ $ $ $ $ $ $ $ $ $ $ ",
"> > > > > > > > > > > > > > > > > > $ $ $ $ $ $ $ $ $ $ $ $ $ $ ",
"> > > > > > > > > > > > > > > > $ $ $ $ $ $ > > > > > > > > $ $ ",
"> > > > > > > > > > > > > > > > $ $ $ $ $ $ > > > > > > > > $ $ "
};
