/* XPM */
static char *result[] = {
/* columns rows colors chars-per-pixel */
"32 32 97 2 ",
"   c #170F0F",
".  c #180E0F",
"X  c #190E0F",
"o  c #1A0E0F",
"O  c #1B0E0F",
"+  c #1C0E0F",
"@  c #1E0E0F",
"#  c #1F0E0F",
"$  c #0F0F10",
"%  c #100F10",
"&  c #110F10",
"*  c #120F10",
"=  c #130F10",
"-  c #140F10",
";  c #150F10",
":  c #170F10",
">  c #1D1D1F",
",  c #1E1D1F",
"<  c #1F1D1F",
"1  c #200E0F",
"2  c #210E0F",
"3  c #230E0F",
"4  c #250E0F",
"5  c #270E0E",
"6  c #270E0F",
"7  c #2A0D0E",
"8  c #2B0D0E",
"9  c #2D0D0E",
"0  c #2F0D0E",
"q  c #3C0000",
"w  c #310D0E",
"e  c #340D0E",
"r  c #350D0E",
"t  c #360D0E",
"y  c #3A0C0D",
"u  c #3D0C0D",
"i  c #211C1E",
"p  c #201D1F",
"a  c #211D1F",
"s  c #221C1E",
"d  c #231C1E",
"f  c #251C1E",
"g  c #261C1E",
"h  c #271C1E",
"j  c #291B1D",
"k  c #2A1B1D",
"l  c #2B1B1D",
"z  c #2C1B1D",
"x  c #2D1B1D",
"c  c #2F1B1D",
"v  c #291C1D",
"b  c #281C1E",
"n  c #311A1C",
"m  c #301B1C",
"M  c #301B1D",
"N  c #331A1C",
"B  c #341A1C",
"V  c #351A1C",
"C  c #371A1C",
"Z  c #39191B",
"A  c #3B191B",
"S  c #381A1B",
"D  c #3C191B",
"F  c #400C0D",
"G  c #420C0D",
"H  c #430C0D",
"J  c #440C0D",
"K  c #460C0D",
"L  c #490C0C",
"P  c #4A1719",
"I  c #4B1719",
"U  c #4C1719",
"Y  c #4D1719",
"T  c #4F1718",
"R  c #4E1719",
"E  c #41181A",
"W  c #40191A",
"Q  c #42181A",
"!  c #43181A",
"~  c #471819",
"^  c #44181A",
"/  c #45181A",
"(  c #46181A",
")  c #481819",
"_  c #491819",
"`  c #571617",
"'  c #5B1517",
"]  c #581617",
"[  c #591617",
"{  c #501718",
"}  c #511718",
"|  c #521618",
" . c #531618",
".. c #551618",
"X. c #DC0000",
"o. c #ED0000",
"O. c #FF4F3F",
/* pixels */
"$ $ > > > > > > > > > > > > $ $ $ $ $ $ > > > > > > > > > > > > ",
"$ $ > > > > > > > > > > > > $ $ $ $ $ $ > > > > > > > > > > > > ",
"> > $ $ > > > > > > > > $ $ > > > > $ $ > > > > > > > > > > > > ",
"> > $ $ > > > > > > , < * = i s s i = * < , > > > > > > > > > > ",
"> > > > $ $ > > , < - : h j l z z l j h : - < , > > > > > > > > ",
"> > > > $ $ > , p d O 2 N S Z A A Z S N 2 O d p , > > > > > > > ",
"> > > > > > % =   @ B D ^ P R { { R P ^ D B @   a , > > > > > > ",
"> > > > > , *   1 8 ! Y ..q q q q q q ..Y ! 8 1 f p , > > > > > ",
"> > > > > < ; @ C ^ } q q O.O.O.O.O.O.q q } ^ C @ ; < > > > > > ",
"> > > > > p X 4 E { q O.O.O.O.O.O.O.O.O.X.q { E 4 X p > > > > > ",
"> > > > % ; @ 9 I q o.O.O.O.O.O.O.O.O.O.o.X.q I Z l ; % > > > > ",
"> > > > &   3 e | q o.O.O.O.O.O.O.O.O.O.o.X.q | W M   & > > > > ",
"$ $ $ $ * o 5 y ` q O.O.O.O.O.O.O.O.O.O.O.X.q ` ( B o * $ $ $ $ ",
"$ $ $ $ = + 8 F q O.O.O.O.O.O.O.O.O.O.O.O.O.X.q I S + = $ $ $ $ ",
"> > $ $ - @ 9 H q O.O.O.O.O.O.O.O.O.O.O.O.O.O.q R Z @ - $ $ > > ",
"> > $ $ - # 0 J q O.O.O.O.O.O.O.O.O.O.O.O.O.O.q T A # - $ $ > > ",
"> > > > - @ 9 G q O.O.O.O.O.O.O.O.O.O.O.O.O.O.q Y Z @ - > > > > ",
"> > > > = + 7 u q q O.O.O.O.O.O.O.O.O.O.O.O.X.q ) C + = > > > > ",
"> > > > * . n E | q X.O.O.O.O.O.O.O.O.O.O.X.q { r 4 g p > > > > ",
"> > > > & ; l Z _ ] q o.O.O.O.q q q q q q q { ^ 7 @ s < > > > > ",
"> > $ $ , p g m W { q X.X.O.q X.X.X.q '  .I t 7 x f p , > > > > ",
"> > $ $ > , i k S ) [ q o.q X.X.X.q ` U Q Z 4 @ f a , > > > > > ",
"$ $ > > > > < f m W { q o.q X.X.q L u w 6 # h s p , > > > > > > ",
"$ $ > > > > , s l S ~ q q q q q K y 9 3 o ; p < , > > > > > > > ",
"> > > > > > > p g M A / U T Y ) W S 1 . = % > > > > > > > > $ $ ",
"> > > > > > > < i b c V S A Z C n l   = % $ > > > > > > > > $ $ ",
"> > > > > > > , p i g v l z l j g s * % $ $ $ $ > > > > $ $ $ $ ",
"> > > > > > > > , < p a i i i a p < % $ $ $ $ $ > > > > $ $ $ $ ",
"> > > > > > > > > > > > > > > > > > $ $ $ $ $ $ $ $ $ $ $ $ $ $ ",
"> > > > > > > > > > > > > > > > > > $ $ $ $ $ $ $ $ $ $ $ $ $ $ ",
"> > > > > > > > > > > > > > > > $ $ $ $ $ $ > > > > > > > > $ $ ",
"> > > > > > > > > > > > > > > > $ $ $ $ $ $ > > > > > > > > $ $ "
};
