/* XPM */
static char *result[] = {
/* columns rows colors chars-per-pixel */
"32 32 99 2 ",
"   c #170F0F",
".  c #180E0F",
"X  c #190E0F",
"o  c #1A0E0F",
"O  c #1B0E0F",
"+  c #1C0E0F",
"@  c #1D0E0F",
"#  c #1E0E0F",
"$  c #1F0E0F",
"%  c #0F0F10",
"&  c #100F10",
"*  c #110F10",
"=  c #120F10",
"-  c #130F10",
";  c #140F10",
":  c #150F10",
">  c #170F10",
",  c #1D1D1F",
"<  c #1E1D1F",
"1  c #1F1D1F",
"2  c #200E0F",
"3  c #210E0F",
"4  c #230E0F",
"5  c #240E0F",
"6  c #250E0F",
"7  c #270E0E",
"8  c #260E0F",
"9  c #2A0D0E",
"0  c #2B0D0E",
"q  c #280E0E",
"w  c #2D0D0E",
"e  c #2F0D0E",
"r  c #3C0000",
"t  c #300D0E",
"y  c #330D0E",
"u  c #340D0E",
"i  c #360D0E",
"p  c #390D0D",
"a  c #3A0C0D",
"s  c #3D0C0D",
"d  c #3E0C0D",
"f  c #3F0C0D",
"g  c #211C1E",
"h  c #201D1F",
"j  c #211D1F",
"k  c #221C1E",
"l  c #231C1E",
"z  c #241C1E",
"x  c #251C1E",
"c  c #261C1E",
"v  c #271C1E",
"b  c #291B1D",
"n  c #2A1B1D",
"m  c #2B1B1D",
"M  c #2C1B1D",
"N  c #2D1B1D",
"B  c #2E1B1D",
"V  c #311A1C",
"C  c #301B1C",
"Z  c #321A1C",
"A  c #331A1C",
"S  c #341A1C",
"D  c #371A1C",
"F  c #39191B",
"G  c #3A191B",
"H  c #3B191B",
"J  c #381A1B",
"K  c #3C191B",
"L  c #3D191B",
"P  c #400C0D",
"I  c #420C0D",
"U  c #430C0D",
"Y  c #440C0D",
"T  c #450C0D",
"R  c #4F0B0C",
"E  c #480C0C",
"W  c #490C0C",
"Q  c #570B0C",
"!  c #4A1719",
"~  c #4B1719",
"^  c #4D1719",
"/  c #4E1719",
"(  c #41181A",
")  c #40191A",
"_  c #43181A",
"`  c #471819",
"'  c #44181A",
"]  c #481819",
"[  c #491819",
"{  c #571617",
"}  c #5B1517",
"|  c #501718",
" . c #511718",
".. c #521618",
"X. c #531618",
"o. c #541618",
"O. c #551618",
"+. c #ED0000",
"@. c #FF4F3F",
/* pixels */
"% % , , , , , , , , , , , , % % % % % % , , , , , , , , , , , , ",
"% % , , , , , , , , , , , , % % % % % % , , , , , , , , , , , , ",
", , % % , , , , , , , , % % , , , , % % , , , , , , , , , , , , ",
", , % % , , , , , , < 1 = - g k k g - = 1 < , , , , , , , , , , ",
", , , , % % , , < 1 ; > v b m M M m b v > ; 1 < , , , , , , , , ",
", , , , % % , < h l O 3 A J F H H F J A 3 O l h < , , , , , , , ",
", , , , , , & -   # S K ' ! / | | / ! ' K S #   j < , , , , , , ",
", , , , , < =   2 0 _ ^ O.r r r r r r O.^ _ 0 2 x h < , , , , , ",
", , , , , 1 : # D '  .r r +.+.@.@.@.@.r r  .' D # : 1 , , , , , ",
", , , , , h X 6 ( | r +.+.+.+.+.+.@.@.@.@.r | ) 6 . h , , , , , ",
", , , , & : # w ~ r +.+.+.+.+.+.+.+.+.@.@.@.r [ D b ; % , , , , ",
", , , , *   4 u ..r +.+.+.+.+.+.+.+.+.@.@.@.r | K N : & , , , , ",
"% % % % = o 7 a { r +.+.+.+.+.+.+.+.@.@.@.@.r o.( C   * % % % % ",
"% % % % - + 0 P r @.+.+.+.+.+.+.+.@.@.@.+.r r { ` S o = % % % % ",
", , % % ; # w U r @.@.@.@.@.+.+.+.@.@.+.r r r r ! J + - % % , , ",
", , % % ; $ e Y r @.@.@.@.@.@.@.@.@.@.+.r r r r ~ J @ - % % , , ",
", , , , ; # w I r @.@.@.@.@.@.@.@.@.@.+.r r r r ! D + - , , , , ",
", , , , - + 9 s r +.@.@.@.@.@.@.@.@.@.@.+.r r O.' A X = , , , , ",
", , , , = . V ) | r +.+.@.@.@.@.@.@.+.@.@.@.r ^ t 3 z 1 , , , , ",
", , , , * : m D ' | r r r r r r r +.+.r r r o.' 7 O g < , , , , ",
", , % % < h x N D ) ] ^ | o.R Q r @.@.r r } P e N l 1 , , , , , ",
", , % % , < j x m V D F L ( d W r @.@.@.r X.i 8 v h < , , , , , ",
"% % , , , , < h k c b m B Z G ` E r @.@.r f F M k < , , , , , , ",
"% % , , , , , < 1 h j g l v B J p T r r I u V v h , , , , , , , ",
", , , , , , , , , , , , < h x N D ) a p y q n k 1 , , , , , % % ",
", , , , , , , , , , , , , < j x m C 7 7 5 @ z h < , , , , , % % ",
", , , , , , , , , , , , , , < h k c o o . : = & , , , , % % % % ",
", , , , , , , , , , , , , , , < 1 h - - = * & % , , , , % % % % ",
", , , , , , , , , , , , , , , , , , % % % % % % % % % % % % % % ",
", , , , , , , , , , , , , , , , , , % % % % % % % % % % % % % % ",
", , , , , , , , , , , , , , , , % % % % % % , , , , , , , , % % ",
", , , , , , , , , , , , , , , , % % % % % % , , , , , , , , % % "
};
