/* XPM */
static char *result[] = {
/* columns rows colors chars-per-pixel */
"32 32 99 2 ",
"   c #170F0F",
".  c #180E0F",
"X  c #190E0F",
"o  c #1A0E0F",
"O  c #1B0E0F",
"+  c #1C0E0F",
"@  c #1D0E0F",
"#  c #1E0E0F",
"$  c #1F0E0F",
"%  c #0F0F10",
"&  c #100F10",
"*  c #110F10",
"=  c #120F10",
"-  c #130F10",
";  c #140F10",
":  c #150F10",
">  c #160F10",
",  c #170F10",
"<  c #1D1D1F",
"1  c #1E1D1F",
"2  c #1F1D1F",
"3  c #200E0F",
"4  c #210E0F",
"5  c #240E0F",
"6  c #250E0F",
"7  c #270E0E",
"8  c #260E0F",
"9  c #270E0F",
"0  c #2A0D0E",
"q  c #2B0D0E",
"w  c #2C0D0E",
"e  c #2E0D0E",
"r  c #3C0000",
"t  c #300D0E",
"y  c #350D0E",
"u  c #360D0E",
"i  c #380D0D",
"p  c #3B0C0D",
"a  c #3E0C0D",
"s  c #3F0C0D",
"d  c #211C1E",
"f  c #201D1F",
"g  c #211D1F",
"h  c #221C1E",
"j  c #231C1E",
"k  c #241C1E",
"l  c #251C1E",
"z  c #261C1E",
"x  c #271C1E",
"c  c #291B1D",
"v  c #2A1B1D",
"b  c #2B1B1D",
"n  c #2C1B1D",
"m  c #2D1B1D",
"M  c #2E1B1D",
"N  c #291C1D",
"B  c #281C1E",
"V  c #311A1C",
"C  c #301B1C",
"Z  c #301B1D",
"A  c #321A1C",
"S  c #331A1C",
"D  c #341A1C",
"F  c #351A1C",
"G  c #371A1C",
"H  c #39191B",
"J  c #3B191B",
"K  c #381A1B",
"L  c #3C191B",
"P  c #3D191B",
"I  c #3F191B",
"U  c #400C0D",
"Y  c #4F0B0C",
"T  c #490C0C",
"R  c #4A0C0C",
"E  c #570B0C",
"W  c #4A1719",
"Q  c #4B1719",
"!  c #4D1719",
"~  c #4F1718",
"^  c #4E1719",
"/  c #41181A",
"(  c #40191A",
")  c #43181A",
"_  c #44181A",
"`  c #45181A",
"'  c #46181A",
"]  c #481819",
"[  c #491819",
"{  c #571617",
"}  c #5B1517",
"|  c #501718",
" . c #511718",
".. c #521618",
"X. c #531618",
"o. c #541618",
"O. c #551618",
"+. c #ED0000",
"@. c #FF4F3F",
/* pixels */
"% % < < < < < < < < < < < < % % % % % % < < < < < < < < < < < < ",
"% % < < < < < < < < < < < < % % % % % % < < < < < < < < < < < < ",
"< < % % < < < < < < < < % % < < < < % % < < < < < < < < < < < < ",
"< < % % < < < < < < 1 2 = - d h h d - = 2 1 < < < < < < < < < < ",
"< < < < % % < < 1 2 ; , x c b n n b c x , ; 2 1 < < < < < < < < ",
"< < < < % % < 1 f j O 4 S K H J J H K S 4 O j f 1 < < < < < < < ",
"< < < < < < & -   # D L _ W ^ | | ^ W _ L D #   g 1 < < < < < < ",
"< < < < < 1 =   3 q ) ! O.r r r r r r O.! ) q 3 l f 1 < < < < < ",
"< < < < < 2 : # G _  .r r @.@.@.@.+.+.r r  ._ G # : 2 < < < < < ",
"< < < < < f . 6 ( | r @.@.@.@.+.+.+.+.+.+.r | / 6 X f < < < < < ",
"< < < < % ; + 0 [ r @.@.@.+.+.+.+.+.+.+.+.+.r Q H b : & < < < < ",
"< < < < & : 3 t | r @.@.@.+.+.+.+.+.+.+.+.+.r ..( Z   * < < < < ",
"% % % % *   5 u o.r @.@.@.@.+.+.+.+.+.+.+.+.r { ' D o = % % % % ",
"% % % % = o 7 p { r r +.@.@.@.+.+.+.+.+.+.+.@.r Q K + - % % % % ",
"< < % % - + q s r r r r +.@.@.+.+.+.@.@.@.@.@.r ^ H # ; % % < < ",
"< < % % - @ w U r r r r +.@.@.@.@.@.@.@.@.@.@.r ~ J $ ; % % < < ",
"< < < < - + 0 s r r r r +.@.@.@.@.@.@.@.@.@.@.r ! H # ; < < < < ",
"< < < < = X 9 i R r r +.@.@.@.@.@.@.@.@.@.@.+.r ] G + - < < < < ",
"< < < < * , M L ! r @.@.@.+.@.@.@.@.@.@.+.+.r | y 6 z f < < < < ",
"< < < < & ; N D _ o.r r r +.+.r r r r r r r | _ 0 # h 2 < < < < ",
"< < % % < 2 j m J Q } r r @.@.r E Y o.| ! ] y 0 m l f 1 < < < < ",
"< < % % < 1 f x A / X.r @.@.@.r T a / P H G 6 # l g 1 < < < < < ",
"% % < < < < 1 h n H W r @.@.r X.p e 8 4 # + z h f 1 < < < < < < ",
"% % < < < < < f x V ( ! r r | ` w 4 X > ; - f 2 1 < < < < < < < ",
"< < < < < < < 2 h v F I ` ' ( G m l = & % % < < < < < < < < % % ",
"< < < < < < < 1 f k v C D D C b l g & % % % < < < < < < < < % % ",
"< < < < < < < < 1 f h z B B z h f 1 % % % % % % < < < < % % % % ",
"< < < < < < < < < 1 2 f g g f 2 1 < % % % % % % < < < < % % % % ",
"< < < < < < < < < < < < < < < < < < % % % % % % % % % % % % % % ",
"< < < < < < < < < < < < < < < < < < % % % % % % % % % % % % % % ",
"< < < < < < < < < < < < < < < < % % % % % % < < < < < < < < % % ",
"< < < < < < < < < < < < < < < < % % % % % % < < < < < < < < % % "
};
