/* XPM */
static char *result[] = {
/* columns rows colors chars-per-pixel */
"32 32 5 1 ",
"  c #0F0F10",
". c #1D1D1F",
"X c #302F31",
"o c #4C484D",
"O c gray50",
/* pixels */
"  ............      ............",
"  .........OOOOoooooo...........",
"..  .......OOOOoooooo...........",
"..  .......OOOOoooooo...........",
"....  ..OOO ........ ooo........",
"....  ..OOO ........ ooo........",
"......  OOO..........ooo........",
"......  OOO..........ooo........",
"......  OOO..........ooo  ......",
".....OOO................ooo.....",
".... OOO................ooo ....",
".... OOO................ooo ....",
"     OOO................XXX     ",
"     OOO................XXX     ",
"..   OOO  ..............XXX   ..",
"..   OOO  ..............XXX   ..",
".... OOO    ............XXX ....",
".... OOO    ............XXX ....",
".... OOO....  ..........XXX.....",
".... OOO....  ..........XXX.....",
"..  .OOO......    ....  XXX.....",
"..  .OOO......    ....  XXX.....",
"  ...OOO........      ..XXX.....",
"  ......OOO.....     XXX........",
"........OOO.......   XXX......  ",
"........OOO.......   XXX......  ",
"........OOO.......   XXX....    ",
"........OOO.......   XXX....    ",
"...........OOOOOXXXXX           ",
"...........OOOOOXXXXX           ",
"...........OOOOOXXXXX ........  ",
"................      ........  "
};
