/* XPM */
static char *result[] = {
/* columns rows colors chars-per-pixel */
"32 32 102 2 ",
"   c #0F0F10",
".  c #151819",
"X  c #181D1F",
"o  c #1D1D1F",
"O  c #1A1F21",
"+  c #1E1E20",
"@  c #1E1F21",
"#  c #1F2023",
"$  c #1B2224",
"%  c #1D2426",
"&  c #202123",
"*  c #202224",
"=  c #212325",
"-  c #222527",
";  c #222528",
":  c #23272A",
">  c #24282A",
",  c #212A2C",
"<  c #212B2D",
"1  c #252A2C",
"2  c #262A2D",
"3  c #272C2F",
"4  c #242F32",
"5  c #282F31",
"6  c #293033",
"7  c #2B3336",
"8  c #283537",
"9  c #2C3437",
"0  c #293639",
"q  c #2D3639",
"w  c #2E373A",
"e  c #2B3A3D",
"r  c #2D3C3F",
"t  c #303A3E",
"y  c #303B3F",
"u  c #333F43",
"i  c #344044",
"p  c #354246",
"a  c #374549",
"s  c #34464A",
"d  c #34474B",
"f  c #38474B",
"g  c #364A4E",
"h  c #38484C",
"j  c #3A4A4E",
"k  c #3D4F54",
"l  c #3E5055",
"z  c #3E5155",
"x  c #3C5357",
"c  c #3F5256",
"v  c #405459",
"b  c #42575C",
"n  c #40585D",
"m  c #40595E",
"M  c #415B60",
"N  c #455B60",
"B  c #465D62",
"V  c #456065",
"C  c #486065",
"Z  c #496267",
"A  c #476368",
"S  c #4A6368",
"D  c #4A6369",
"F  c #4B646A",
"G  c #49676C",
"H  c #4A686E",
"J  c #4D686D",
"K  c #4E696F",
"L  c #4C6B71",
"P  c #4F6B71",
"I  c #4D6C71",
"U  c #4D6D72",
"Y  c #506C72",
"T  c #526F75",
"R  c #4F7075",
"E  c #537177",
"W  c #537278",
"Q  c #547379",
"!  c #52747A",
"~  c #55747A",
"^  c #55757B",
"/  c #53767C",
"(  c #54787E",
")  c #57787E",
"_  c #557980",
"`  c #577C82",
"'  c #587980",
"]  c #597B81",
"[  c #587D83",
"{  c #5A7C82",
"}  c #597F85",
"|  c #5B7E84",
" . c #5B7E85",
".. c #5C7F86",
"X. c #5D8188",
"o. c #5E8389",
"O. c #5F838A",
"+. c #5F848B",
"@. c #5A939C",
"#. c #60868D",
"$. c #76ACB8",
"%. c #A9E3EA",
/* pixels */
"    o o o o o o o o o o o o             o o o o o o o o o o o o ",
"    o o o o o o o o o %.%.%.%.$.$.$.$.$.$.o o o o o o o o o o o ",
"o o     o o o o o o o %.%.%.%.$.$.$.$.$.$.o o o o o o o o o o o ",
"o o     o o o o o o o %.%.%.%.$.$.$.$.$.$.o o o o o o o o o o o ",
"o o o o     o o %.%.%.} +.X. .| |  .X.+.} $.$.$.o o o o o o o o ",
"o o o o     o o %.%.%.` | ) W T T W ) | ` $.$.$.o o o o o o o o ",
"o o o o o o     %.%.%.| ~ Y D C C D Y ~ | $.$.$.o o o o o o o o ",
"o o o o o o     %.%.%.^ K B v l l v B K ^ $.$.$.o o o o o o o o ",
"o o o o o o     %.%.%.Y B z f p p f z B Y $.$.$.    o o o o o o ",
"o o o o o %.%.%.o.] E Z c a y q q y a c Z E ] o.$.$.$.o o o o o ",
"o o o o   %.%.%...^ J b h t 6 3 3 6 t h b J ^ ..$.$.$.  o o o o ",
"o o o o   %.%.%.{ T C k u 9 2 ; ; 2 9 u k C T { $.$.$.  o o o o ",
"          %.%.%.' P N j y 5 : = = : 5 y j N P ' @.@.@.          ",
"          %.%.%.) J b a w 3 - # # - 3 w a b J ) @.@.@.          ",
"o o       %.%.%.U M v p 9 1 * @ @ * 1 9 p v F ^ @.@.@.      o o ",
"o o       %.%.%.L m z i 7 > & + + & > 7 i z S Q @.@.@.      o o ",
"o o o o   %.%.%.L m s 8 7 > & + + & > 7 i z S Q @.@.@.  o o o o ",
"o o o o   %.%.%.U M g 0 9 1 * @ @ * 1 9 p v F ^ @.@.@.  o o o o ",
"o o o o   %.%.%.) J b a < O - # # - 3 w a b J ) @.@.@.o o o o o ",
"o o o o   %.%.%.' P N j 4 $ : = = : 5 y j N P ' @.@.@.o o o o o ",
"o o     o %.%.%.{ T C k u 9 X . . X 9 u k C G ! @.@.@.o o o o o ",
"o o     o %.%.%...^ J b h t % O O % t h b J U ( @.@.@.o o o o o ",
"    o o o %.%.%.o.] E Z c a y q , 4 e d n H ] o.@.@.@.o o o o o ",
"    o o o o o o %.%.%.Y B z f p 0 r s x A @.@.@.o o o o o o o o ",
"o o o o o o o o %.%.%.^ K B v l l v x V U @.@.@.o o o o o o     ",
"o o o o o o o o %.%.%.| ~ Y D C C D A I / @.@.@.o o o o o o     ",
"o o o o o o o o %.%.%.O.| ) W T T W R / ` @.@.@.o o o o         ",
"o o o o o o o o %.%.%.#.+.X. .| |  ._ [ } @.@.@.o o o o         ",
"o o o o o o o o o o o %.%.%.%.%.@.@.@.@.@.                      ",
"o o o o o o o o o o o %.%.%.%.%.@.@.@.@.@.                      ",
"o o o o o o o o o o o %.%.%.%.%.@.@.@.@.@.  o o o o o o o o     ",
"o o o o o o o o o o o o o o o o             o o o o o o o o     "
};
