/* XPM */
static char *result[] = {
/* columns rows colors chars-per-pixel */
"32 32 94 2 ",
"   c #0F0F10",
".  c #141617",
"X  c #161A1B",
"o  c #171B1C",
"O  c #181D1F",
"+  c #1D1D1F",
"@  c #191E20",
"#  c #1E1E20",
"$  c #1F2022",
"%  c #1C2325",
"&  c #1D2426",
"*  c #1F2729",
"=  c #202123",
"-  c #202224",
";  c #212426",
":  c #222527",
">  c #222528",
",  c #232629",
"<  c #23272A",
"1  c #24282A",
"2  c #212B2D",
"3  c #262A2D",
"4  c #262B2E",
"5  c #232D2F",
"6  c #272D30",
"7  c #242E31",
"8  c #282E31",
"9  c #292F32",
"0  c #253033",
"q  c #293033",
"w  c #2B3336",
"e  c #2C3437",
"r  c #2E373A",
"t  c #2A383B",
"y  c #2B393C",
"u  c #2F393C",
"i  c #2C3B3E",
"p  c #303A3E",
"a  c #303B3F",
"s  c #313C40",
"d  c #313D40",
"f  c #323F42",
"g  c #314245",
"h  c #354347",
"j  c #364447",
"k  c #334649",
"l  c #364448",
"z  c #34464A",
"x  c #34474B",
"c  c #37464A",
"v  c #374B4F",
"b  c #39494D",
"n  c #3B4B4F",
"m  c #384E52",
"M  c #3C4D51",
"N  c #3D4F54",
"B  c #3A5054",
"V  c #3B5155",
"C  c #3E5055",
"Z  c #3E5155",
"A  c #3F5256",
"S  c #3D5458",
"D  c #3D5559",
"F  c #3E575B",
"G  c #405459",
"H  c #41555A",
"J  c #42575C",
"K  c #43585C",
"L  c #415A5F",
"P  c #445A5F",
"I  c #415B60",
"U  c #455B60",
"Y  c #435D62",
"T  c #455C61",
"R  c #445F63",
"E  c #465E63",
"W  c #475E64",
"Q  c #456065",
"!  c #456166",
"~  c #466267",
"^  c #486065",
"/  c #496267",
"(  c #4A6369",
")  c #4B646A",
"_  c #4B656B",
"`  c #4C666B",
"'  c #4D686D",
"]  c #4D696E",
"[  c #4E696F",
"{  c #4E6A70",
"}  c #4F6B71",
"|  c #4A6D73",
" . c #66868F",
".. c #99BDC1",
/* pixels */
"    + + + + + + + + + + + +             + + + + + + + + + + + + ",
"    + + + + + + + + + ........ . . . . . .+ + + + + + + + + + + ",
"+ +     + + + + + + + ........ . . . . . .+ + + + + + + + + + + ",
"+ +     + + + + + + + ........ . . . . . .+ + + + + + + + + + + ",
"+ + + +     + + ......~ { ' _ ) ) _ ' { ~  . . .+ + + + + + + + ",
"+ + + +     + + ......Q ) ^ T P P T ^ ) Q  . . .+ + + + + + + + ",
"+ + + + + +     ......) E K A N N A K E )  . . .+ + + + + + + + ",
"+ + + + + +     ......W H M c h h c M H W  . . .+ + + + + + + + ",
"+ + + + + +     ......K M j s u u s j M K  . . .    + + + + + + ",
"+ + + + + ......] ( U C l p e 9 9 e p l C U ( ]  . . .+ + + + + ",
"+ + + +   ......` W G b d w 4 1 1 4 w d b G W `  . . .  + + + + ",
"+ + + +   ......( P N h r 8 < ; ; < 8 r h N P (  . . .  + + + + ",
"          ....../ J n f e 3 : = = : 3 e f n J / | | |           ",
"          ......^ G b a q 1 - $ $ - 1 q a b G ^ | | |           ",
"+ +       ......D x c u 8 , = # # = , 8 u c A W | | |       + + ",
"+ +       ......S z j r 6 > $ # # $ > 6 r j Z E | | |       + + ",
"+ + + +   ......S z t 2 6 > $ # # $ > 6 r j Z E | | |   + + + + ",
"+ + + +   ......D x i 5 8 , = # # = , 8 u c A W | | |   + + + + ",
"+ + + +   ......^ G b a & o - $ $ - 1 q a b G ^ | | | + + + + + ",
"+ + + +   ....../ J n f * O : = = : 3 e f n J / | | | + + + + + ",
"+ +     + ......( P N h r 8 X . . X 8 r h N B L | | | + + + + + ",
"+ +     + ......` W G b d w @ o o @ w d b G D Y | | | + + + + + ",
"    + + + ......] ( U C l p e 9 % * 7 y k V ( ] | | | + + + + + ",
"    + + + + + + ......K M j s u 5 0 t g m | | | + + + + + + + + ",
"+ + + + + + + + ......W H M c h h c g v D | | | + + + + + +     ",
"+ + + + + + + + ......) E K A N N A m S I | | | + + + + + +     ",
"+ + + + + + + + ......[ ) ^ T P P T F I Q | | | + + + +         ",
"+ + + + + + + + ......} { ' _ ) ) _ R ! ~ | | | + + + +         ",
"+ + + + + + + + + + + ..........| | | | |                       ",
"+ + + + + + + + + + + ..........| | | | |                       ",
"+ + + + + + + + + + + ..........| | | | |   + + + + + + + +     ",
"+ + + + + + + + + + + + + + + +             + + + + + + + +     "
};
