/* XPM */
static char *result[] = {
/* columns rows colors chars-per-pixel */
"32 32 107 2 ",
"   c #0F0F10",
".  c #171B1C",
"X  c #1D1D1F",
"o  c #1E1E20",
"O  c #1E1F21",
"+  c #1B2123",
"@  c #1D2426",
"#  c #1F2729",
"$  c #202123",
"%  c #202224",
"&  c #212426",
"*  c #222527",
"=  c #232629",
"-  c #24282A",
";  c #212A2C",
":  c #252A2C",
">  c #262B2E",
",  c #272D30",
"<  c #282E31",
"1  c #263134",
"2  c #273335",
"3  c #293033",
"4  c #2C3437",
"5  c #2D3639",
"6  c #2A383B",
"7  c #2F393C",
"8  c #2F3A3D",
"9  c #303A3E",
"0  c #2F3F43",
"q  c #313D40",
"w  c #323F42",
"e  c #314245",
"r  c #354347",
"t  c #364447",
"y  c #334649",
"u  c #35484C",
"i  c #39494E",
"p  c #3A4A4E",
"a  c #3C4D51",
"s  c #3E5055",
"d  c #3E5155",
"f  c #3F5357",
"g  c #3E565A",
"h  c #3E575B",
"j  c #3F575C",
"k  c #405458",
"l  c #42575C",
"z  c #415A5F",
"x  c #465E63",
"c  c #475E64",
"v  c #475F64",
"b  c #486065",
"n  c #496166",
"m  c #4A6369",
"M  c #4B646A",
"N  c #49676C",
"B  c #4D686D",
"V  c #4D6D72",
"C  c #4E6E73",
"Z  c #506D72",
"A  c #526F75",
"S  c #507076",
"D  c #547379",
"F  c #55757B",
"G  c #54777D",
"H  c #56767C",
"J  c #57787E",
"K  c #58787F",
"L  c #567A80",
"P  c #5A7D83",
"I  c #5B7E85",
"U  c #5A8086",
"Y  c #5B8188",
"T  c #5D8188",
"R  c #5D8288",
"E  c #5D858C",
"W  c #5E868D",
"Q  c #5E878E",
"!  c #61878E",
"~  c #62888F",
"^  c #618A91",
"/  c #638A91",
"(  c #648C93",
")  c #648D94",
"_  c #658D95",
"`  c #659198",
"'  c #679198",
"]  c #66929A",
"[  c #69939B",
"{  c #68959D",
"}  c #6A969D",
"|  c #6B979E",
" . c #6A989F",
".. c #6B9AA2",
"X. c #6C98A0",
"o. c #6D9AA2",
"O. c #6E9BA3",
"+. c #6D9CA4",
"@. c #6F9DA5",
"#. c #6E9EA6",
"$. c #709FA7",
"%. c #71A0A8",
"&. c #72A2AA",
"*. c #73A3AC",
"=. c #65ACB6",
"-. c #81C5D2",
";. c #B4FCFF",
/* pixels */
"    X X X X X X X X X X X X             X X X X X X X X X X X X ",
"    X X X X X X X X X ;.;.;.;.-.-.-.-.-.-.X X X X X X X X X X X ",
"X X     X X X X X X X ;.;.;.;.-.-.-.-.-.-.X X X X X X X X X X X ",
"X X     X X X X X X X ;.;.;.;.-.-.-.-.-.-.X X X X X X X X X X X ",
"X X X X     X X ;.;.;.#.&.@.o.X.X.o.@.&.#.-.-.-.X X X X X X X X ",
"X X X X     X X ;.;.;...X.' / ! ! / ' X...-.-.-.X X X X X X X X ",
"X X X X X X     ;.;.;.X.) R J D D J R ) X.-.-.-.X X X X X X X X ",
"X X X X X X     ;.;.;._ I A M c c M A I _ -.-.-.X X X X X X X X ",
"X X X X X X     ;.;.;.R A v f a a f v A R -.-.-.    X X X X X X ",
"X X X X X ;.;.;.$.} ~ F n s t q q t s n F ~ } $.-.-.-.X X X X X ",
"X X X X   ;.;.;.O._ P B k r 5 3 3 5 r k B P _ O.-.-.-.  X X X X ",
"X X X X   ;.;.;.| ! D x i 8 < - - < 8 i x D ! | -.-.-.  X X X X ",
"          ;.;.;.[ T Z l t 4 : * * : 4 t l Z T [ =.=.=.          ",
"          ;.;.;.' P B d w 3 = $ $ = 3 w d B P ' =.=.=.          ",
"X X       ;.;.;.Q S m a 9 , & O O & , 9 a m K _ =.=.=.      X X ",
"X X       ;.;.;.E C b p 7 > % o o % > 7 p b H ( =.=.=.      X X ",
"X X X X   ;.;.;.E C h 0 7 > % o o % > 7 p b H ( =.=.=.  X X X X ",
"X X X X   ;.;.;.Q S z e 9 , & O O & , 9 a m K _ =.=.=.  X X X X ",
"X X X X   ;.;.;.' P B d 2 @ = $ $ = 3 w d B P ' =.=.=.X X X X X ",
"X X X X   ;.;.;.[ T Z l 6 # : * * : 4 t l Z T [ =.=.=.X X X X X ",
"X X     X ;.;.;.| ! D x i 8 + . . + 8 i x D U ` =.=.=.X X X X X ",
"X X     X ;.;.;.O._ P B k r ; @ @ ; r k B P Q { =.=.=.X X X X X ",
"    X X X ;.;.;.$.} ~ F n s t q 1 6 y j V Y } $.=.=.=.X X X X X ",
"    X X X X X X ;.;.;.R A v f a e u g N L =.=.=.X X X X X X X X ",
"X X X X X X X X ;.;.;._ I A M c c M N G Q =.=.=.X X X X X X     ",
"X X X X X X X X ;.;.;.X.) R J D D J L W ] =.=.=.X X X X X X     ",
"X X X X X X X X ;.;.;.%.X.' / ! ! / ^ ] ..=.=.=.X X X X         ",
"X X X X X X X X ;.;.;.*.&.@.o.X.X.o. .+.#.=.=.=.X X X X         ",
"X X X X X X X X X X X ;.;.;.;.;.=.=.=.=.=.                      ",
"X X X X X X X X X X X ;.;.;.;.;.=.=.=.=.=.                      ",
"X X X X X X X X X X X ;.;.;.;.;.=.=.=.=.=.  X X X X X X X X     ",
"X X X X X X X X X X X X X X X X             X X X X X X X X     "
};
