/* XPM */
static char *result[] = {
/* columns rows colors chars-per-pixel */
"32 32 82 1 ",
"  c #0F0F10",
". c #121315",
"X c #141617",
"o c #141718",
"O c #151819",
"+ c #161A1B",
"@ c #181C1E",
"# c #181D1F",
"$ c #1D1D1F",
"% c #1A1F21",
"& c #1E1E20",
"* c #1E1F21",
"= c #1F2022",
"- c #1F2023",
"; c #1B2224",
": c #1C2325",
"> c #1D2426",
", c #1E2527",
"< c #202123",
"1 c #202224",
"2 c #212325",
"3 c #212426",
"4 c #222527",
"5 c #222528",
"6 c #23272A",
"7 c #24282A",
"8 c #25292B",
"9 c #212B2D",
"0 c #252A2C",
"q c #262A2D",
"w c #262B2E",
"e c #232D2F",
"r c #272C2F",
"t c #282F31",
"y c #292F32",
"u c #263134",
"i c #273436",
"p c #2A3134",
"a c #2A3235",
"s c #283537",
"d c #2C3437",
"f c #2A373A",
"g c #2D3639",
"h c #2E373A",
"j c #2B393C",
"k c #2F393C",
"l c #2C3B3E",
"z c #2D3C3F",
"x c #303A3E",
"c c #2D3D40",
"v c #2E3D41",
"b c #2F3F43",
"n c #313C40",
"m c #313D40",
"M c #323F42",
"N c #333F43",
"B c #304144",
"V c #314245",
"C c #314346",
"Z c #344044",
"A c #354246",
"S c #354347",
"D c #324447",
"F c #364447",
"G c #334649",
"H c #364448",
"J c #34464A",
"K c #37464A",
"L c #38474B",
"P c #38484C",
"I c #39494D",
"U c #3A4A4E",
"Y c #3B4B4F",
"T c #3B4C50",
"R c #3C4D51",
"E c #3C4E52",
"W c #3D4F53",
"Q c #3D4F54",
"! c #3E5055",
"~ c #3E5155",
"^ c #5A6A71",
"/ c #8DA1A3",
/* pixels */
"  $$$$$$$$$$$$      $$$$$$$$$$$$",
"  $$$$$$$$$////^^^^^^$$$$$$$$$$$",
"$$  $$$$$$$////^^^^^^$$$$$$$$$$$",
"$$  $$$$$$$////^^^^^^$$$$$$$$$$$",
"$$$$  $$///J!WERREW!J^^^$$$$$$$$",
"$$$$  $$///GRULKKLURG^^^$$$$$$$$",
"$$$$$$  ///RIHZMMZHIR^^^$$$$$$$$",
"$$$$$$  ///ISmkggkmSI^^^$$$$$$$$",
"$$$$$$  ///HmhayyahmH^^^  $$$$$$",
"$$$$$///QTLNhpr00rphNLTQ^^^$$$$$",
"$$$$ ///EIAxaw6446waxAIE^^^ $$$$",
"$$$$ ///TKMgt73<<37tgMKT^^^ $$$$",
"     ///YFndr51==15rdnFY~~~     ",
"     ///UAxpq4-**-4qpxAU~~~     ",
"$$   ///vsky82=&&=28ykZI~~~   $$",
"$$   ///ciht72*$$*27thNP~~~   $$",
"$$$$ ///ci9;72*$$*27thNP~~~ $$$$",
"$$$$ ///vse:82=&&=28ykZI~~~ $$$$",
"$$$$ ///UAxp#o-**-4qpxAU~~~$$$$$",
"$$$$ ///YFnd%O1==15rdnFY~~~$$$$$",
"$$  $///TKMgt7X..X7tgMlB~~~$$$$$",
"$$  $///EIAxaw+oo+waxAvC~~~$$$$$",
"  $$$///QTLNhpr0@%>9izTQ~~~$$$$$",
"  $$$$$$///Hmhay:,9uj~~~$$$$$$$$",
"$$$$$$$$///ISmkggkufv~~~$$$$$$  ",
"$$$$$$$$///RIHZMMZjvV~~~$$$$$$  ",
"$$$$$$$$///!RULKKLbVG~~~$$$$    ",
"$$$$$$$$///~!WERREDGJ~~~$$$$    ",
"$$$$$$$$$$$/////~~~~~           ",
"$$$$$$$$$$$/////~~~~~           ",
"$$$$$$$$$$$/////~~~~~ $$$$$$$$  ",
"$$$$$$$$$$$$$$$$      $$$$$$$$  "
};
