/* XPM */
static char *result[] = {
/* columns rows colors chars-per-pixel */
"32 32 53 1 ",
"  c #0F0F10",
". c #101112",
"X c #111314",
"o c #121315",
"O c #131517",
"+ c #141617",
"@ c #151819",
"# c #16191A",
"$ c #161A1B",
"% c #171C1D",
"& c #181C1E",
"* c #1D1D1F",
"= c #1A1F21",
"- c #1E1E20",
"; c #1E1F21",
": c #1A2022",
"> c #1B2123",
", c #1F2022",
"< c #1F2023",
"1 c #1B2224",
"2 c #1C2325",
"3 c #1D2426",
"4 c #1E2527",
"5 c #1E2628",
"6 c #1F2729",
"7 c #202123",
"8 c #202224",
"9 c #212325",
"0 c #212426",
"q c #222528",
"w c #232629",
"e c #23272A",
"r c #20282A",
"t c #20292B",
"y c #25292B",
"u c #252A2C",
"i c #262A2D",
"p c #262B2E",
"a c #272C2F",
"s c #272D30",
"d c #282E31",
"f c #282F31",
"g c #292F32",
"h c #293033",
"j c #2A3134",
"k c #2A3235",
"l c #2B3336",
"z c #2C3437",
"x c #2C3438",
"c c #2D3538",
"v c #34383B",
"b c #505157",
"n c #838889",
/* pixels */
"  ************      ************",
"  *********nnnnbbbbbb***********",
"**  *******nnnnbbbbbb***********",
"**  *******nnnnbbbbbb***********",
"****  **nnntcxzzzzxctbbb********",
"****  **nnnrzkhhhhkzrbbb********",
"******  nnnzjgssssgjzbbb********",
"******  nnnjfauyyuafjbbb********",
"******  nnngayeqqeyagbbb  ******",
"*****nnnxlhsuw0990wushlxbbb*****",
"**** nnnzjfie07<<70eifjzbbb ****",
"**** nnnlhsyq8<;;<8qyshlbbb ****",
"     nnnkfpe07,;;,70epfkvvv     ",
"     nnnkfiw9<;--;<9wifkvvv     ",
"**   nnn3>uq8,-**-,8qudjvvv   **",
"**   nnn3:yq8,-**-,8qysjvvv   **",
"**** nnn3:%@8,-**-,8qysjvvv ****",
"**** nnn3>&@8,-**-,8qudjvvv ****",
"**** nnnkfiwOX;--;<9wifkvvv*****",
"**** nnnkfpe+o,;;,70epfkvvv*****",
"**  *nnnlhsyq8X..X8qys35vvv*****",
"**  *nnnzjfie0oXXo0eif36vvv*****",
"  ***nnnxlhsuw09O+#&:3lxvvv*****",
"  ******nnngayeq@$%=2vvv********",
"********nnnjfauyyu=13vvv******  ",
"********nnnzjgssss236vvv******  ",
"********nnnxzkhhhh46rvvv****    ",
"********nnnccxzzzzrttvvv****    ",
"***********nnnnnvvvvv           ",
"***********nnnnnvvvvv           ",
"***********nnnnnvvvvv ********  ",
"****************      ********  "
};
