/* XPM */
static char *result[] = {
/* columns rows colors chars-per-pixel */
"32 32 164 2 ",
"   c #0F0F10",
".  c #0F1010",
"X  c #0F1111",
"o  c #0F1211",
"O  c #0F1311",
"+  c #0F1412",
"@  c #0F1512",
"#  c #0F1612",
"$  c #0E1712",
"%  c #0E1813",
"&  c #0E1913",
"*  c #0E1A13",
"=  c #0E1B14",
"-  c #0E1C14",
";  c #0E1E15",
":  c #0E1F15",
">  c #1D1D1F",
",  c #1D1E1F",
"<  c #1D1F1F",
"1  c #0E2116",
"2  c #0D2517",
"3  c #0E2416",
"4  c #0E2417",
"5  c #0D2617",
"6  c #0D2818",
"7  c #0D2918",
"8  c #0D2A18",
"9  c #0D2B19",
"0  c #0D2C19",
"q  c #0D2D19",
"w  c #0D311B",
"e  c #0D321B",
"r  c #0C371C",
"t  c #0C391D",
"y  c #0C3C1E",
"u  c #0C3D1E",
"i  c #0C3F1F",
"p  c #1D1F20",
"a  c #1D2020",
"s  c #1C2120",
"d  c #1C2320",
"f  c #1C2321",
"g  c #1C2421",
"h  c #1C2521",
"j  c #1C2621",
"k  c #1C2721",
"l  c #1B2822",
"z  c #1B2922",
"x  c #1B2B22",
"c  c #1B2B23",
"v  c #1B2C23",
"b  c #1B2D23",
"n  c #1B2E23",
"m  c #1A2F23",
"M  c #1A2F24",
"N  c #1A3024",
"B  c #1A3124",
"V  c #1A3224",
"C  c #1A3425",
"Z  c #193625",
"A  c #193826",
"S  c #193926",
"D  c #193C27",
"F  c #183D27",
"G  c #183E27",
"H  c #0C411F",
"J  c #0B4320",
"K  c #0C4220",
"L  c #0B4420",
"P  c #0B4521",
"I  c #0B4922",
"U  c #0B4A22",
"Y  c #0B4B22",
"T  c #0B4C23",
"R  c #0B4D23",
"E  c #0B4F23",
"W  c #0B4F24",
"Q  c #174429",
"!  c #174629",
"~  c #17472A",
"^  c #184028",
"/  c #184228",
"(  c #184329",
")  c #184429",
"_  c #17482A",
"`  c #174B2B",
"'  c #164C2B",
"]  c #164D2B",
"[  c #164E2B",
"{  c #164F2C",
"}  c #0B5024",
"|  c #0A5124",
" . c #0A5526",
".. c #0A5626",
"X. c #0A5826",
"o. c #0A5927",
"O. c #0A5A27",
"+. c #0A5B27",
"@. c #16502C",
"#. c #15532D",
"$. c #15542D",
"%. c #15552D",
"&. c #15562D",
"*. c #15572E",
"=. c #15582E",
"-. c #14592E",
";. c #145B2F",
":. c #145D2F",
">. c #145E30",
",. c #145F30",
"<. c #096029",
"1. c #096229",
"2. c #09642A",
"3. c #09652A",
"4. c #096B2C",
"5. c #136130",
"6. c #136231",
"7. c #136331",
"8. c #146030",
"9. c #136431",
"0. c #136531",
"q. c #136632",
"w. c #136732",
"e. c #126932",
"r. c #126A33",
"t. c #126B33",
"y. c #126C33",
"u. c #126D33",
"i. c #087931",
"p. c #087B31",
"a. c #0F7D37",
"s. c #0F7E38",
"d. c #0F7F38",
"f. c #117034",
"g. c #117134",
"h. c #117435",
"j. c #107535",
"k. c #117535",
"l. c #107636",
"z. c #107A37",
"x. c #107B37",
"c. c #107C37",
"v. c #6A655D",
"b. c #078032",
"n. c #078033",
"m. c #078133",
"M. c #078233",
"N. c #0F8038",
"B. c #0F8138",
"V. c #0F8239",
"C. c #0F8339",
"Z. c #0E8539",
"A. c #0E863A",
"S. c #0E873A",
"D. c #0E883A",
"F. c #0E893A",
"G. c #0E8A3B",
"H. c #0D8C3B",
"J. c #0D8D3B",
"K. c #0D8E3C",
"L. c #B3B0AC",
"P. c #E8E4DF",
"I. c #F3F2F0",
"U. c white",
/* pixels */
"    > > > > > > > p h M G ' E  . .E K e M h p > > > > > > > > > ",
"    > > > > > > > a z A ' ,.I.I.I.I. .K A z a > > > > > > > > > ",
"> >     > > > > > d n ^ E I.U.U.I.I.I.E ^ n d > > > > > > > > > ",
"> >     > > > > > f N )  .I.U.I.I.I.I...Q N f > > > > > > > > > ",
"> > > >     > > , g 2 y 6.I.I.v.I.I.v.7.u 5 g , > > > > > > > > ",
"> > > >     > , < k 7 i 0.I.I.I.I.v.I.w.H 8 k < , > > > > > > > ",
"> > > > > > . X + ; D @.e.x.I.I.L.L.L.y.#.F : + < , > > > > > > ",
"> > > > > > . O * 7 _ :.g.B.G.L.I.I.I.h.>._ 7 * s , > > > > > > ",
"> > > > > > o % N / &.r.P.L.I.P.L.P.L.P.t.&./ N % o > > > > > > ",
"> > > > > > o - S [ 9.P.L.I.U.U.I.I.P.L.P.0.{ S - o > > > > > > ",
"> > > >     @ 1 ^ -.I.N.I.L.K.P.L.K.L.P.N.P.-.^ n d     > > > > ",
"> > > >   . # 4 ! 5.I.Z.I.I.U.U.I.I.P.P.Z.P.5.! B f .   > > > > ",
"          . % 6 ` 0.I.A.I.J.K.P.L.K.J.P.A.P.0.` C j .           ",
"          o = 0 { e.I.A.I.I.U.U.I.I.P.P.A.P.e.{ A l o           ",
"> >       o ; w Y 2.I.A.I.H.J.P.L.J.H.P.A.P.u.%.F c o       > > ",
"> >       @ 1 r | I.d.A.G.I.U.U.I.I.P.G.A.d.P.;./ n @       > > ",
"> > > >   # 3 t  .I.i.n.G.G.H.P.L.H.G.G.S.B.P.,.Q N #   > > > > ",
"> > > >   $ 2 y X.I.p.m.I.I.U.U.I.P.P.P.D.V.P.5.~ V $   > > > > ",
"> > > >   $ V _ 6.I.C.F.I.M.P.P.P.P.F.L.D.V.P.5.y 2 g > > > > > ",
"> > > >   $ V ~ 5.I.V.D.b.P.P.P.L.L.L.Z.Z.a.P.:.r 3 f > > > > > ",
"> >     > f N ( :.I.s.Z.I.c.4.3.3.4.z.P.s.j.P.I F b d > > > > > ",
"> >     > d b F $.I.l.a.I.g.O.} } O.f.P.j.e.W y C z a > > > > > ",
"    > > > a z C ~ -.e.k.I.r.-.] J W <.P.1.| _ A x f p > > > > > ",
"    > > > p f x A _ -.e.I.q.%._ u Y +.P.o.J D b f a , > > > > > ",
"> > > > > , a f v S ' ,.I.0.=.' ' =.+.P.} t V h < , , > > >     ",
"> > > > > , , < f m ^ &.0.I.>.#.#.>.P.+.U w c a > > > > > >     ",
"> > > > > > > > p l A { 5.I.5.=.=.5.P.X.L 0 = o > > > >         ",
"> > > > > > > > < k Z ' 8.I.9.;.;.9.P...H 8 & X > > > >         ",
"> > > > > > > > < k Z ' 8.I.0.:.:.0.P...K 8 & X                 ",
"> > > > > > > > < l A { 6.I.0.;.;.0.P.o.L 9 = X                 ",
"> > > > > > > > a z S @.8.I.8.&.T ..P...P q z a > > > > > >     ",
"> > > > > > > > a z A ' I.I.*.] J R P.P.H 9 z a > > > > > >     "
};
