/* XPM */
static char *result[] = {
/* columns rows colors chars-per-pixel */
"32 32 168 2 ",
"   c #0F0F10",
".  c #0F1010",
"X  c #0F1111",
"o  c #0F1211",
"O  c #0F1311",
"+  c #0F1412",
"@  c #0F1512",
"#  c #0F1612",
"$  c #0E1712",
"%  c #0E1813",
"&  c #0E1A13",
"*  c #0E1B14",
"=  c #0E1C14",
"-  c #0E1D14",
";  c #0E1E15",
":  c #0E1F15",
">  c #1D1D1F",
",  c #1D1E1F",
"<  c #1D1F1F",
"1  c #0E2116",
"2  c #0D2517",
"3  c #0E2416",
"4  c #0E2417",
"5  c #0D2617",
"6  c #0D2818",
"7  c #0D2918",
"8  c #0D2A18",
"9  c #0D2B19",
"0  c #0D2C19",
"q  c #0D2D19",
"w  c #0D2E19",
"e  c #0D2F1A",
"r  c #0D311B",
"t  c #0D321B",
"y  c #0C371C",
"u  c #0C391D",
"i  c #0C3C1E",
"p  c #0C3D1E",
"a  c #0C3F1F",
"s  c #1D1F20",
"d  c #1D2020",
"f  c #1C2120",
"g  c #1C2320",
"h  c #1C2321",
"j  c #1C2421",
"k  c #1C2521",
"l  c #1C2621",
"z  c #1C2721",
"x  c #1B2822",
"c  c #1B2922",
"v  c #1B2A22",
"b  c #1B2B22",
"n  c #1B2B23",
"m  c #1B2C23",
"M  c #1B2D23",
"N  c #1B2E23",
"B  c #1A2F23",
"V  c #1A2F24",
"C  c #1A3024",
"Z  c #1A3124",
"A  c #1A3224",
"S  c #1A3425",
"D  c #193625",
"F  c #193826",
"G  c #193926",
"H  c #193C27",
"J  c #183D27",
"K  c #183E27",
"L  c #0C411F",
"P  c #0B4320",
"I  c #0C4220",
"U  c #0B4420",
"Y  c #0B4521",
"T  c #0B4621",
"R  c #0B4821",
"E  c #0B4922",
"W  c #0B4A22",
"Q  c #0B4B22",
"!  c #0B4C23",
"~  c #0B4F23",
"^  c #0B4F24",
"/  c #174429",
"(  c #174629",
")  c #17472A",
"_  c #184028",
"`  c #184228",
"'  c #184329",
"]  c #184429",
"[  c #17482A",
"{  c #174B2B",
"}  c #164C2B",
"|  c #164D2B",
" . c #164E2B",
".. c #164F2C",
"X. c #0B5024",
"o. c #0A5124",
"O. c #0A5526",
"+. c #0A5626",
"@. c #0A5826",
"#. c #0A5927",
"$. c #0A5A27",
"%. c #0A5B27",
"&. c #16502C",
"*. c #15532D",
"=. c #15542D",
"-. c #15552D",
";. c #15562D",
":. c #15572E",
">. c #15582E",
",. c #14592E",
"<. c #145B2F",
"1. c #145D2F",
"2. c #145E30",
"3. c #145F30",
"4. c #096029",
"5. c #096229",
"6. c #09642A",
"7. c #09652A",
"8. c #096B2C",
"9. c #136130",
"0. c #136231",
"q. c #136331",
"w. c #146030",
"e. c #136431",
"r. c #136531",
"t. c #136632",
"y. c #136732",
"u. c #126932",
"i. c #126A33",
"p. c #126B33",
"a. c #126C33",
"s. c #126D33",
"d. c #087931",
"f. c #087B31",
"g. c #0F7D37",
"h. c #0F7E38",
"j. c #0F7F38",
"k. c #117034",
"l. c #117134",
"z. c #117435",
"x. c #107535",
"c. c #117535",
"v. c #107636",
"b. c #107A37",
"n. c #107B37",
"m. c #107C37",
"M. c #6A655D",
"N. c #078032",
"B. c #078033",
"V. c #078133",
"C. c #078233",
"Z. c #0F8038",
"A. c #0F8138",
"S. c #0F8239",
"D. c #0F8339",
"F. c #0E8539",
"G. c #0E863A",
"H. c #0E873A",
"J. c #0E883A",
"K. c #0E893A",
"L. c #0E8A3B",
"P. c #0D8C3B",
"I. c #0D8D3B",
"U. c #0D8E3C",
"Y. c #B3B0AC",
"T. c #E8E4DF",
"R. c #F3F2F0",
"E. c white",
/* pixels */
"    > > > > > > > s k V K } ~ O.O.~ I t V k s > > > > > > > > > ",
"    > > > > > > > d c F } 3.R.R.R.R.O.I F c d > > > > > > > > > ",
"> >     > > > > > g N _ ~ R.E.E.R.R.R.~ _ N g > > > > > > > > > ",
"> >     > > > > > h C ] O.R.E.M.R.R.M.+./ C h > > > > > > > > > ",
"> > > >     > > , j 2 i 0.R.R.R.R.M.R.q.p 5 j , > > > > > > > > ",
"> > > >     > , < z 7 a r.R.R.R.Y.Y.Y.y.L 8 z < , > > > > > > > ",
"> > > > > > . X + ; H &.u.n.T.R.R.R.R.a.*.J : + < , > > > > > > ",
"> > > > > > . O & 7 [ 1.l.A.L.Y.Y.L.S.z.2.[ 7 & f , > > > > > > ",
"> > > > > > o % C ` ;.i.T.Y.R.T.Y.T.Y.T.p.;.` C % o > > > > > > ",
"> > > > > > o = G  .e.T.Y.R.E.E.R.R.T.Y.T.r...G = o > > > > > > ",
"> > > >     @ 1 _ ,.R.Z.R.Y.U.T.Y.U.Y.T.Z.T.,._ N g     > > > > ",
"> > > >   . # 4 ( 9.R.F.R.R.E.E.R.R.T.T.F.T.9.( Z h .   > > > > ",
"          . % 6 { r.R.G.R.I.U.T.Y.U.I.T.G.T.r.{ S l .           ",
"          o * 0 ..u.R.G.R.R.E.E.R.R.T.T.G.T.u...F x o           ",
"> >       o ; r Q 6.R.G.R.P.I.T.Y.I.P.T.G.T.s.-.J n o       > > ",
"> >       @ 1 y o.R.j.G.L.R.E.E.R.R.T.L.G.j.T.<.` N @       > > ",
"> > > >   # 3 u O.R.d.B.L.L.P.T.Y.P.L.L.H.A.T.3./ C #   > > > > ",
"> > > >   $ 2 i @.R.f.V.R.R.E.E.R.T.T.T.J.S.T.9.) A $   > > > > ",
"> > > >   $ A [ 0.R.D.K.R.C.T.T.T.T.K.Y.J.S.T.9.i 2 j > > > > > ",
"> > > >   $ A ) 9.R.S.J.N.T.T.T.Y.Y.Y.F.F.g.T.1.y 3 h > > > > > ",
"> >     > h C ' 1.R.h.F.R.m.8.7.7.8.b.T.h.x.T.E J M g > > > > > ",
"> >     > g M J =.R.v.g.R.l.$.X.X.$.k.T.x.u.^ i S c d > > > > > ",
"    > > > d c S ) ,.u.c.R.i.,.| P ^ 4.T.5.o.[ F b h s > > > > > ",
"    > > > s h b F [ ,.u.R.t.-.[ p Q %.T.#.P H M h d , > > > > > ",
"> > > > > , d h m G } 3.R.r.>.} } >.%.T.X.u A k < , , > > >     ",
"> > > > > , , < h B _ ;.r.R.2.*.*.2.T.%.W r n d > > > > > >     ",
"> > > > > > > > s x F ..9.R.9.>.>.0.T.#.Y q = o > > > >         ",
"> > > > > > > > < z D } w.R.e.<.<.r.T.#.U 9 * X > > > >         ",
"> > > > > > > > < z D } w.R.r.1.1.r.T.$.Y q * o                 ",
"> > > > > > > > < x F ..0.R.r.<.<.r.T.%.R e - o                 ",
"> > > > > > > > d c G &.w.R.w.;.! +.T.T.T w v d > > > > > >     ",
"> > > > > > > > d c F } R.R.:.| P Q T.! p 8 x d > > > > > >     "
};
