/* XPM */
static char *result[] = {
/* columns rows colors chars-per-pixel */
"32 32 3 1 ",
"  c #191919",
". c #302F31",
"X c #4C484D",
/* pixels */
"XXXX  XXXXXXXXXXXX  XXXXXXXXXX  ",
"XXXX  XXXXXXXXXXXX  XXXXXXXXXX  ",
"....  ............  ..........  ",
"....  ............  ..........  ",
"....  ....  ......  ........    ",
"....  ....  ......  ........    ",
"                                ",
"                                ",
"XX  XXXX  XXXXXXXXXXXX  XXXXXX  ",
"XX  XXXX  XXXXXXXXXXXX  XXXXXX  ",
"........  ............  ......  ",
"........  ............  ......  ",
"........  ............  ..  ..  ",
"........  ............  ..  ..  ",
"                                ",
"                                ",
"XXXXXXXXXXXXXX  XXXXXXXXXXXX    ",
"XXXXXXXXXXXXXX  XXXXXXXXXXXX    ",
"..............  ............    ",
"..............  ............    ",
"......  ......  ............    ",
"......  ......  ............    ",
"                                ",
"                                ",
"XXXX  XXXXXXXXXXXXXX  XXXXXXXX  ",
"XXXX  XXXXXXXXXXXXXX  XXXXXXXX  ",
"....  ..............  ........  ",
"....  ..............  ........  ",
"....  ........  ....  ..  ....  ",
"....  ........  ....  ..  ....  ",
"                                ",
"                                "
};
